<svg width="750" height="500" viewBox="0 0 750 500" fill="none" xmlns="http://www.w3.org/2000/svg">
<g clip-path="url(#clip0_2235_2027)">
<mask id="mask0_2235_2027" style="mask-type:luminance" maskUnits="userSpaceOnUse" x="0" y="0" width="750" height="500">
<path d="M0 500L750 500L750 0L0 0L0 500Z" fill="white"/>
</mask>
<g mask="url(#mask0_2235_2027)">
<g opacity="0.52">
<path opacity="0.9783" d="M410.677 -254.355C390.64 -263.341 357.966 -263.144 345.475 -247.45C336.006 -235.524 336.665 -218.248 327.391 -208.589C312.108 -192.629 280.874 -192.707 250.961 -201.277C223.994 -208.778 196.473 -219.299 172.095 -227.339C154.579 -232.776 131.867 -237.762 136.438 -221.379C143.64 -192.859 189.258 -147.184 214.516 -116.774C233.227 -93.216 251.504 -67.3271 255.43 -42.7991C256.057 -38.8221 256.103 -35.1771 255.672 -31.9211C253.261 -13.3721 232.277 -5.43106 210.147 -2.03006C161.018 5.74694 101.511 9.50894 48.6639 5.90594C-21.2511 1.33294 -82.7171 -27.043 -132.728 -40.537C-176.354 -51.225 -217.989 -53.76 -252.781 8.69196C-276.807 52.387 -290.41 117.278 -299.812 178.5C-309.052 240.285 -314.091 298.401 -317.248 341.577" stroke="black" stroke-width="1.0852" stroke-miterlimit="10"/>
<path opacity="0.9565" d="M418.487 -251.096C397.774 -258.077 367.327 -260.407 354.066 -243.448C344.52 -231.382 344.964 -213.924 335.562 -204.141C320.026 -187.926 288.722 -187.687 258.764 -195.968C231.684 -203.26 205.233 -213.043 181.096 -220.796C163.745 -226.076 142.158 -229.287 146.753 -213.114C154.202 -184.611 198.062 -140.745 222.861 -110.449C240.803 -87.6054 258.302 -62.4064 261.423 -38.6464C261.92 -34.7934 261.85 -31.2634 261.311 -28.1054C258.261 -9.98139 237.016 -2.35137 215.025 0.955627C165.835 8.59263 107.479 12.0766 54.4354 10.2796C-15.5116 8.0966 -77.7546 -18.4564 -127.971 -31.7484C-172.853 -42.5434 -215.518 -46.3914 -251.182 13.9636C-275.802 56.2286 -289.728 121.665 -299.431 183.876C-308.957 246.641 -314.259 306.18 -317.557 349.443" stroke="black" stroke-width="1.0852" stroke-miterlimit="10"/>
<path opacity="0.9348" d="M426.292 -247.837C406.901 -256.449 375.213 -255.247 362.768 -239.407C353.171 -227.145 353.356 -209.588 343.83 -199.684C328.039 -183.212 296.638 -182.605 266.704 -190.586C240.014 -197.525 214.092 -207.022 190.202 -214.212C172.826 -219.193 152.545 -220.898 157.141 -204.968C164.793 -176.523 206.873 -134.376 231.157 -104.217C248.318 -82.0754 265.02 -57.5604 267.33 -34.5694C267.697 -30.8384 267.731 -27.1634 266.865 -24.3584C261.671 -7.5134 243.777 0.227616 219.818 3.90662C170.815 11.5576 112.905 14.9236 60.1135 14.4626C-9.40553 14.0116 -72.2035 -9.90639 -123.076 -23.0234C-169.278 -33.8854 -212.97 -38.9284 -249.522 19.2476C-274.695 59.9326 -288.954 125.905 -298.98 189.159C-308.815 252.95 -314.418 314.022 -317.854 357.296" stroke="black" stroke-width="1.0852" stroke-miterlimit="10"/>
<path opacity="0.913" d="M434.074 -244.582C414.972 -252.893 381.918 -250.71 371.56 -235.338C363.452 -223.047 361.172 -205.226 352.177 -195.232C337.429 -178.538 304.666 -177.429 274.774 -185.146C248.48 -191.701 223.036 -200.942 199.399 -207.591C182.032 -212.267 163.017 -212.582 167.587 -196.932C175.391 -168.585 215.782 -128.026 239.391 -98.0814C255.688 -76.6644 271.616 -52.7954 273.143 -30.5724C273.384 -26.9634 273.282 -23.4004 272.323 -20.6854C266.518 -4.25744 248.414 3.01157 224.521 6.81857C175.406 14.7686 117.554 18.0746 65.6844 18.4546C-2.91458 19.0576 -66.0786 -1.40544 -118.054 -14.3834C-165.626 -25.2884 -210.374 -31.3694 -247.804 24.5346C-273.457 63.4626 -288.066 129.977 -298.453 194.354C-308.632 259.24 -314.588 321.989 -318.143 365.129" stroke="black" stroke-width="1.0852" stroke-miterlimit="10"/>
<path opacity="0.8913" d="M441.823 -241.339C423.019 -249.456 390.752 -246.668 380.425 -231.253C372.256 -218.796 369.697 -200.889 360.593 -190.798C345.6 -173.865 312.812 -172.331 282.971 -179.663C257.088 -185.803 232.037 -194.814 208.677 -200.934C191.353 -205.298 173.547 -204.353 178.084 -188.996C186.034 -160.743 224.585 -121.872 247.558 -92.0409C263.046 -71.2569 278.146 -48.1089 278.861 -26.6529C278.97 -23.1609 278.737 -19.7089 277.686 -17.0829C271.272 -1.06489 252.864 5.97812 229.132 9.69612C179.778 17.5521 122.891 20.6281 71.1371 22.2631C3.20808 24.4791 -60.2739 6.84712 -112.915 -5.85188C-161.919 -16.7569 -207.755 -23.7259 -246.027 29.8141C-272.085 66.8511 -287.056 133.916 -297.83 199.482C-308.382 265.519 -314.738 330.058 -318.42 372.933" stroke="black" stroke-width="1.0852" stroke-miterlimit="10"/>
<path opacity="0.8696" d="M449.521 -238.111C431.022 -246.026 399.614 -242.585 389.339 -227.162C381.091 -214.553 378.009 -197.503 369.057 -186.394C354.769 -168.288 318.776 -167.616 291.283 -174.151C266.426 -179.673 240.629 -188.878 218.019 -194.244C197.617 -199.082 186.818 -194.044 188.616 -181.153C191.822 -156.473 233.303 -115.659 255.646 -86.1003C270.334 -65.9823 284.574 -43.5083 284.479 -22.8183C284.457 -19.4413 284.093 -16.0993 282.95 -13.5583C275.886 2.13171 257.158 8.82471 233.389 12.4567C183.653 20.1687 128.041 23.0387 76.4645 25.8897C9.32548 29.6337 -54.4025 14.8727 -107.675 2.54771C-158.189 -8.28029 -205.038 -16.0793 -244.196 35.0737C-270.596 70.1097 -285.944 137.769 -297.138 204.6C-308.094 271.857 -314.895 338.285 -318.687 380.699" stroke="black" stroke-width="1.0852" stroke-miterlimit="10"/>
<path opacity="0.8478" d="M457.156 -234.906C438.972 -242.607 408.486 -238.472 398.284 -223.077C389.986 -210.317 386.627 -193.217 377.557 -182.035C363.016 -163.73 327.158 -162.525 299.705 -168.63C275.223 -173.709 249.777 -182.658 227.412 -187.53C207.305 -191.922 197.36 -186.063 199.17 -173.4C202.513 -148.688 242.073 -109.552 263.646 -80.2636C277.532 -60.7966 290.889 -38.9956 289.991 -19.0696C289.838 -15.8046 289.344 -12.5706 288.109 -10.1116C280.361 5.31543 260.911 11.5994 237.28 15.0474C187.552 22.4224 133.337 24.8844 81.6526 29.3384C15.3886 35.0574 -49.0404 22.5604 -102.346 10.7924C-154.451 0.101419 -202.238 -8.44857 -242.31 40.3024C-268.984 73.2634 -284.729 141.561 -296.374 209.724C-307.764 278.259 -315.055 346.66 -318.943 388.42" stroke="black" stroke-width="1.0852" stroke-miterlimit="10"/>
<path opacity="0.8261" d="M464.712 -231.726C446.854 -239.2 417.343 -234.336 407.239 -219.007C398.899 -206.106 395.256 -188.978 386.075 -177.732C371.291 -159.242 335.627 -157.477 308.227 -163.115C284.193 -167.707 258.869 -176.428 236.841 -180.796C217.066 -184.737 207.93 -178.141 209.732 -165.732C213.169 -141.045 250.81 -103.511 271.55 -74.5342C284.635 -55.7022 297.086 -34.5742 295.394 -15.4112C295.11 -12.2552 294.222 -9.3342 293.161 -6.7462C286.968 8.5608 261.336 14.6098 240.973 17.5058C191.278 24.9448 137.977 27.1058 86.6964 32.6168C21.4674 39.6048 -43.0446 30.1248 -96.9426 18.8568C-150.671 8.3678 -199.394 -0.831215 -240.371 45.4868C-267.255 76.3278 -283.42 145.362 -295.549 214.946C-307.408 284.839 -315.23 355.283 -319.183 396.09" stroke="black" stroke-width="1.0852" stroke-miterlimit="10"/>
<path opacity="0.8043" d="M472.176 -228.583C455.31 -235.527 425.959 -230.539 416.182 -214.968C407.904 -201.553 403.868 -184.808 394.596 -173.502C379.582 -154.84 344.171 -152.496 316.84 -157.628C293.219 -161.724 267.996 -170.19 246.29 -174.056C226.883 -177.536 218.5 -170.282 220.288 -158.151C223.799 -133.562 259.638 -97.4635 279.349 -68.9215C291.386 -51.0085 303.372 -30.0565 300.686 -11.8485C300.232 -8.80948 299.247 -5.97149 298.105 -3.46849C291.62 11.0105 263.966 17.0715 244.481 19.8345C194.826 27.3355 142.455 29.2325 91.5858 35.7275C27.4678 43.8625 -37.0152 37.4165 -91.4842 26.7125C-146.88 16.4975 -196.504 6.73951 -238.381 50.6115C-265.405 79.3075 -282.016 149.172 -294.663 220.26C-307.024 291.586 -315.422 364.137 -319.407 403.695" stroke="black" stroke-width="1.0852" stroke-miterlimit="10"/>
<path opacity="0.7826" d="M479.532 -225.48C462.98 -232.228 435.717 -226.735 425.094 -210.97C416.028 -197.305 412.575 -179.625 403.102 -169.359C386.512 -151.179 354.737 -147.804 325.533 -152.188C302.607 -155.468 277.567 -163.715 255.74 -167.322C236.433 -170.555 229.077 -162.509 230.819 -150.66C234.339 -126.209 268.276 -91.5789 287.032 -63.4319C298.282 -46.1199 309.296 -25.8299 305.859 -8.3869C305.276 -5.4539 304.386 -2.6089 302.932 -0.282898C294.405 13.5291 268.272 19.0651 247.806 22.0411C198.206 29.6021 146.563 31.6241 96.3088 38.6771C33.2698 47.4531 -30.4212 44.4831 -85.9932 34.3341C-143.113 24.2711 -194.87 17.1151 -236.347 55.6621C-257.076 74.7441 -272.843 132.498 -283.051 177.779C-301.19 259.875 -311.711 340.553 -319.617 411.231" stroke="black" stroke-width="1.0852" stroke-miterlimit="10"/>
<path opacity="0.7609" d="M486.766 -222.422C470.542 -228.903 444.36 -222.576 433.953 -207.023C424.888 -193.248 421.116 -175.649 411.577 -165.314C394.825 -146.965 363.32 -143.046 334.294 -146.813C311.859 -149.555 286.454 -157.613 265.176 -160.605C247.916 -162.993 238.341 -155.901 241.31 -143.259C247.463 -116.589 276.848 -85.7734 294.589 -58.0724C305.059 -41.3414 315.074 -21.7154 310.91 -5.03043C310.198 -2.20043 309.06 0.407568 307.145 2.52257C295.537 15.4206 271.937 20.9936 250.964 24.1336C201.468 31.7736 149.517 32.8426 100.846 41.4506C40.2755 52.0686 -24.7895 50.8716 -80.4905 41.6956C-139.278 32.4866 -192.437 20.0776 -234.273 60.6256C-285.462 112.298 -309.13 339.24 -319.813 418.69" stroke="black" stroke-width="1.0852" stroke-miterlimit="10"/>
<path opacity="0.7391" d="M493.865 -219.419C476.94 -226.024 453.14 -217.591 442.738 -203.142C433.536 -190.054 429.614 -171.771 420.002 -161.385C403.112 -142.887 371.929 -138.411 343.11 -141.528C321.147 -143.724 295.298 -151.564 274.577 -153.925C257.789 -155.794 249.032 -148.288 251.742 -135.959C257.399 -109.852 285.506 -79.5659 302.014 -52.8559C311.756 -36.7599 320.699 -17.7249 315.835 -1.7879C314.997 0.945097 312.835 2.9201 310.801 4.9581C298.424 17.4351 275.005 22.9221 253.963 26.1141C204.692 33.8051 153.535 33.2851 104.796 43.3811C44.5237 55.7721 -19.7512 56.8131 -74.9982 48.7661C-107.361 44.0121 -137.397 39.4151 -164.829 41.1041C-187.456 42.5451 -211.821 44.4981 -231.94 66.6131C-287.033 130.174 -308.274 341.001 -319.989 426.064" stroke="black" stroke-width="1.0852" stroke-miterlimit="10"/>
<path opacity="0.7174" d="M500.814 -216.472C484.32 -222.731 461.543 -213.524 451.429 -199.333C442.156 -186.051 438.798 -168.263 428.361 -157.58C410.146 -138.855 380.549 -133.98 351.97 -136.348C330.229 -138.047 304.721 -145.67 283.928 -147.295C265.077 -148.841 260.906 -140.041 262.1 -128.763C264.48 -105.83 294.062 -73.9278 309.297 -47.7868C318.026 -32.5428 327.536 -13.0018 319.781 0.797226C318.481 3.10223 316.436 5.27722 314.289 7.24522C301.189 19.3262 277.937 24.7452 256.815 27.9922C207.842 35.7242 156.682 34.9882 108.543 45.1962C48.4586 57.8752 -12.9254 62.6332 -69.5444 55.5202C-102.386 51.3492 -133.186 46.5692 -161.061 47.8482C-184.621 49.0432 -208.435 50.2272 -229.551 73.1202C-285.805 137.279 -307.685 345.495 -320.148 433.348" stroke="black" stroke-width="1.0852" stroke-miterlimit="10"/>
<path opacity="0.6957" d="M507.598 -213.589C492.026 -220.184 469.431 -208.737 460.005 -195.61C450.771 -182.357 447.082 -164.63 436.635 -153.914C418.36 -135.081 389.16 -129.635 360.857 -131.298C339.125 -132.474 313.672 -139.524 293.208 -140.741C275.197 -141.87 271.238 -132.683 272.364 -121.689C274.655 -99.0558 302.34 -68.4838 316.429 -42.8838C324.17 -28.5968 332.903 -9.68381 323.476 3.16919C321.843 5.38319 319.873 7.48119 317.62 9.38719C303.837 21.0972 280.816 26.3162 259.53 29.7692C210.617 37.8822 159.758 36.6162 112.094 46.9022C52.3419 59.7512 -6.54206 67.9742 -64.1551 61.9252C-97.4271 58.3812 -128.974 53.4642 -157.271 54.3742C-181.673 55.3202 -205.098 56.3252 -227.151 79.9042C-284.487 144.453 -307.058 349.937 -320.289 440.532" stroke="black" stroke-width="1.0852" stroke-miterlimit="10"/>
<path opacity="0.6739" d="M514.203 -210.774C499.081 -216.955 477.532 -204.771 468.443 -191.983C459.274 -178.672 455.245 -161.139 444.805 -150.401C426.503 -131.488 397.745 -125.464 369.755 -126.4C347.987 -127.026 322.507 -133.489 302.398 -134.285C285.283 -135.004 281.467 -125.469 282.515 -114.749C284.686 -92.4684 310.507 -63.1664 323.399 -38.1564C330.841 -23.4634 337.184 -7.41536 327.006 5.38564C325.277 7.54364 323.158 9.54665 320.804 11.3936C306.386 22.7596 283.493 27.9506 262.115 31.4536C213.512 39.5856 162.668 38.2546 115.455 48.5086C56.3858 61.2996 -0.588188 72.7627 -58.8972 67.8727C-117.933 63.4806 -180.853 39.3376 -224.738 86.9166C-283.162 151.941 -306.393 354.349 -320.409 447.615" stroke="black" stroke-width="1.0852" stroke-miterlimit="10"/>
<path opacity="0.6522" d="M520.614 -208.038C505.955 -213.773 485.453 -200.873 476.722 -188.466C467.629 -175.116 463.27 -157.804 452.852 -147.056C434.554 -128.091 406.286 -121.489 378.648 -121.679C356.904 -121.728 331.556 -127.471 311.612 -127.886C295.136 -128.264 291.578 -118.383 292.536 -107.965C294.558 -86.0931 318.555 -58.0031 330.202 -33.6221C337.102 -18.9181 341.128 -4.85313 330.388 7.45187C328.556 9.53387 326.307 11.4739 323.859 13.2689C308.847 24.3159 286.061 29.4919 264.585 33.0469C216.287 41.2019 165.307 39.7949 118.637 50.0209C61.1143 62.5569 4.10426 76.9799 -53.7737 73.4309C-114.193 70.2759 -177.035 45.6509 -222.317 94.1009C-281.786 159.562 -305.691 358.702 -320.512 454.583" stroke="black" stroke-width="1.0852" stroke-miterlimit="10"/>
<path opacity="0.6304" d="M526.819 -205.385C512.636 -210.639 493.175 -197.055 484.822 -185.069C475.801 -171.712 471.084 -155.408 460.758 -143.89C443.687 -124.653 413.537 -117.148 387.52 -117.156C365.421 -116.975 341.248 -121.374 321.016 -121.514C304.582 -121.684 301.555 -111.428 302.41 -101.359C304.278 -79.941 325.079 -53.438 336.83 -29.297C343.726 -14.996 344.308 -1.66499 333.637 9.37601C331.682 11.391 329.336 13.274 326.797 15.021C311.231 25.776 288.459 31.085 266.948 34.555C219.278 42.42 167.694 41.41 121.648 51.448C65.6102 63.571 8.17918 80.223 -48.8368 78.49C-110.393 77.145 -173.315 52.155 -219.885 101.409C-280.351 167.282 -304.948 362.99 -320.591 461.431" stroke="black" stroke-width="1.0852" stroke-miterlimit="10"/>
<path opacity="0.6087" d="M532.802 -202.82C518.304 -206.111 501.349 -194.474 492.722 -181.803C483.8 -168.448 478.788 -152.381 468.503 -140.917C451.433 -121.704 422.031 -113.616 396.349 -112.855C374.461 -112.047 351.108 -115.355 330.445 -115.299C315.666 -115.263 309.918 -105.36 312.115 -94.9564C316.994 -72.1734 334.448 -48.2154 343.273 -25.1994C348.401 -11.6214 348.231 0.553596 336.765 11.1666C334.654 13.1096 332.254 14.9516 329.628 16.6556C313.538 27.1406 290.837 32.4486 269.212 35.9816C221.801 43.8966 170.183 42.8986 124.493 52.7946C69.3186 64.6716 12.6595 82.2126 -44.2115 82.8786C-107.509 84.2906 -169.266 58.5826 -217.443 108.799C-278.856 175.071 -304.161 367.21 -320.647 468.157" stroke="black" stroke-width="1.0852" stroke-miterlimit="10"/>
<path opacity="0.587" d="M538.55 -200.35C524.675 -203.358 508.539 -190.993 500.397 -178.679C491.613 -165.124 486.288 -149.546 476.065 -138.15C459.025 -118.992 430.42 -110.341 405.114 -108.8C383.461 -107.336 360.577 -109.606 339.893 -109.274C325.031 -109.045 319.622 -99.0076 321.635 -88.7886C326.056 -66.7056 342.848 -43.1296 349.525 -21.3476C353.34 -8.7186 351.177 3.12541 339.788 12.8324C337.57 14.7184 335.077 16.5164 332.368 18.1824C315.786 28.4214 293.134 33.7374 271.39 37.3344C224.219 45.3004 172.576 44.3524 127.186 54.0734C72.7283 65.6724 16.7164 83.9954 -39.8636 86.8464C-104.434 90.8554 -165.547 65.2704 -214.999 116.227C-277.276 182.812 -303.334 371.346 -320.682 474.75" stroke="black" stroke-width="1.0852" stroke-miterlimit="10"/>
<path opacity="0.5652" d="M544.048 -197.979C530.683 -200.326 515.016 -187.282 507.827 -175.705C499.794 -162.389 492.803 -146.678 483.424 -135.597C467.708 -116.701 438.679 -107.271 413.793 -105.01C392.402 -102.875 369.798 -104.328 349.344 -103.468C334.484 -102.855 329.06 -93.2415 330.947 -82.8875C334.899 -61.5125 349.64 -39.1345 355.574 -17.7605C358.829 -5.99045 353.244 6.09855 342.715 14.3815C340.394 16.2155 337.811 17.9756 335.023 19.6086C317.977 29.6236 295.354 34.9556 273.487 38.6176C226.534 46.6376 174.876 45.7736 129.729 55.2886C75.8596 66.5906 20.4926 85.4926 -35.7864 90.4166C-101.22 96.9356 -162.156 72.1106 -212.55 123.658C-275.676 190.672 -302.441 375.445 -320.691 481.211" stroke="black" stroke-width="1.0852" stroke-miterlimit="10"/>
<path opacity="0.5435" d="M549.28 -195.716C536.439 -197.381 521.848 -183.978 514.989 -172.895C507.025 -159.614 499.917 -143.538 490.558 -133.273C473.947 -114.83 447.829 -105.224 422.362 -101.512C401.774 -98.4224 379.035 -99.3773 358.786 -97.9203C343.795 -96.8463 337.937 -87.9854 340.037 -77.2924C344.08 -56.7614 357.45 -36.1334 360.623 -15.1474C362.392 -3.21635 356.27 7.92865 345.564 15.8206C343.145 17.6096 340.476 19.3347 337.61 20.9377C320.126 30.7507 297.51 36.1067 275.516 39.8347C228.751 47.9117 177.106 47.1606 132.137 56.4476C78.7323 67.4316 23.9533 86.7726 -31.9767 93.6126C-97.9067 102.464 -159.027 79.0337 -210.105 131.051C-274.004 198.488 -301.528 379.424 -320.679 487.527" stroke="black" stroke-width="1.0852" stroke-miterlimit="10"/>
<path opacity="0.5217" d="M554.235 -193.566C541.933 -194.504 528.389 -180.836 521.864 -170.259C513.964 -157.053 506.739 -141.404 497.448 -131.191C480.98 -112.881 455.611 -102.804 430.798 -98.3316C410.513 -94.5926 388.199 -94.7195 368.202 -92.6705C353.405 -91.1535 346.849 -83.0226 348.886 -72.0526C352.492 -52.6426 364.297 -32.5836 365.469 -12.8056C366.14 -0.990558 359.241 9.59345 348.349 17.1525C345.836 18.9025 343.082 20.5964 340.142 22.1734C322.241 31.8054 299.616 37.1904 277.488 40.9854C230.884 49.1224 179.269 48.5135 134.419 57.5515C81.3693 68.2065 27.1203 87.8545 -28.4237 96.4575C-94.5937 107.453 -156.112 85.9795 -207.661 138.375C-272.268 206.253 -300.567 383.32 -320.639 493.697" stroke="black" stroke-width="1.0852" stroke-miterlimit="10"/>
<path opacity="0.5" d="M558.898 -191.536C547.153 -191.701 534.626 -177.877 528.427 -167.807C520.599 -154.701 513.28 -139.506 504.07 -129.36C487.776 -111.22 463.188 -100.701 439.072 -95.4876C419.108 -91.0256 394.644 -91.4336 377.569 -87.7536C362.129 -84.4386 356.992 -79.4116 357.475 -67.2106C358.052 -50.8976 370.569 -29.3506 370.174 -10.6836C369.92 0.92236 362.171 11.1094 351.08 18.3894C348.475 20.1054 345.64 21.7714 342.628 23.3264C324.33 32.7964 301.676 38.2164 279.409 42.0794C232.939 50.2794 181.368 49.8404 136.582 58.6114C83.7897 68.9234 30.0167 88.7544 -25.1213 98.9724C-92.4273 112.099 -153.676 94.9984 -205.225 145.599C-269.048 209.845 -299.536 386.706 -320.572 499.713" stroke="black" stroke-width="1.0852" stroke-miterlimit="10"/>
<path opacity="0.4783" d="M563.259 -189.625C552.09 -188.998 540.716 -175.202 534.655 -165.548C526.668 -152.478 519.526 -137.894 510.401 -127.79C494.314 -109.823 470.488 -98.886 447.156 -93.004C427.434 -87.887 403.718 -86.98 386.864 -83.209C371.759 -79.825 365.749 -74.734 365.786 -62.82C365.788 -47.486 376.621 -26.384 374.766 -8.76501C373.562 2.66798 365.073 12.485 353.77 19.537C351.076 21.225 348.162 22.866 345.078 24.402C326.399 33.729 303.699 39.189 281.289 43.121C234.924 51.387 183.412 51.142 138.637 59.635C86.0115 69.592 32.6645 89.49 -22.0585 101.179C-89.0315 116.045 -151.098 101.729 -202.801 152.694C-267.25 217.59 -298.489 390.448 -320.48 505.572" stroke="black" stroke-width="1.0852" stroke-miterlimit="10"/>
<path opacity="0.4565" d="M567.451 -187.77C560.455 -188.38 548.161 -175.833 540.527 -163.493C532.725 -150.696 526.043 -137.332 516.934 -126.514C500.977 -107.491 476.871 -97.1556 455.02 -90.9026C435.614 -85.2106 412.768 -83.2906 396.057 -79.0766C381.175 -75.3186 374.348 -70.3326 373.8 -58.9386C373.083 -44.6266 382.452 -23.6996 379.267 -7.03763C377.12 4.24037 367.964 13.7334 356.431 20.6034C353.651 22.2664 350.658 23.8874 347.504 25.4074C328.458 34.6084 305.695 40.1124 283.136 44.1144C236.847 52.4504 185.406 52.4224 140.591 60.6274C88.0556 70.2234 35.0876 90.0784 -19.2234 103.102C-85.7504 119.511 -148.612 108.3 -200.391 159.637C-265.397 225.218 -297.395 394.104 -320.358 511.269" stroke="black" stroke-width="1.0852" stroke-miterlimit="10"/>
<path opacity="0.4348" d="M571.538 -185.957C564.99 -186.201 553.467 -173.778 546.051 -161.641C538.504 -149.123 532.151 -136.078 523.381 -125.394C508.001 -106.587 484.875 -95.8044 463.813 -89.2054C444.492 -83.0134 421.968 -80.1374 405.115 -75.3994C394.306 -72.2134 380.598 -66.9094 381.578 -55.6144C382.982 -39.4684 387.666 -21.2124 383.704 -5.48741C380.939 5.53359 370.863 14.8696 359.074 21.5916C356.208 23.2346 353.139 24.8376 349.916 26.3446C330.513 35.4356 307.674 40.9876 284.958 45.0596C238.714 53.4696 187.303 53.6546 142.454 61.5896C89.998 70.8496 37.216 90.5336 -16.605 104.761C-82.491 122.542 -145.843 114.986 -197.998 166.402C-263.669 232.105 -296.468 399.054 -320.207 516.799" stroke="black" stroke-width="1.0852" stroke-miterlimit="10"/>
<path opacity="0.413" d="M575.526 -184.186C569.4 -184.068 558.509 -171.804 551.419 -159.903C544.215 -147.653 538.079 -134.933 529.672 -124.41C515.121 -106.112 493.03 -94.7345 472.755 -87.8095C453.215 -81.0005 431.042 -77.5305 414.002 -72.2185C403.318 -68.7495 389.436 -63.3045 389.314 -52.7865C389.154 -37.4465 393.221 -19.2355 388.1 -4.10054C384.419 6.81146 373.774 15.8955 361.711 22.5095C358.761 24.1355 355.615 25.7235 352.324 27.2195C332.573 36.2145 309.642 41.8174 286.765 45.9604C240.534 54.4464 189.223 54.8875 144.237 62.5275C91.7447 71.4275 39.2637 90.8665 -14.1923 106.174C-79.5263 125.146 -143.489 121.091 -195.628 172.966C-261.708 239.454 -295.282 402.462 -320.028 522.153" stroke="black" stroke-width="1.0852" stroke-miterlimit="10"/>
<path opacity="0.3913" d="M579.419 -182.451C573.692 -181.98 563.407 -169.901 556.639 -158.251C549.781 -146.273 543.876 -133.142 535.812 -123.55C521.252 -106.178 501.812 -94.6512 481.547 -86.6852C462.628 -79.1722 440.592 -74.9672 423.522 -69.5042C412.794 -65.9342 398.801 -60.7112 397.573 -50.3462C395.78 -35.1352 398.712 -17.5462 392.478 -2.85916C387.888 7.95984 376.715 16.8288 364.352 23.3678C361.318 24.9808 358.097 26.5568 354.738 28.0438C334.646 36.9558 311.61 42.6128 288.564 46.8288C242.32 55.3938 191.112 56.1078 145.949 63.4538C93.3657 71.9918 41.1467 91.0938 -11.9703 107.366C-76.7063 127.365 -141.167 126.922 -193.283 179.314C-259.698 246.624 -294.049 405.777 -319.819 527.334" stroke="black" stroke-width="1.0852" stroke-miterlimit="10"/>
<path opacity="0.3696" d="M583.224 -180.752C577.872 -179.935 568.175 -168.068 561.722 -156.682C555.194 -145 549.518 -132.251 541.811 -122.807C527.957 -105.783 509.493 -94.138 490.192 -85.819C471.915 -77.873 450.789 -72.957 434.022 -67.165C423.194 -63.3 409.261 -58.051 406.466 -48.21C402.269 -33.401 404.182 -16.085 396.863 -1.75496C391.37 8.98604 379.698 17.677 367.011 24.166C363.893 25.769 360.595 27.38 357.169 28.816C336.689 37.412 313.708 43.347 290.365 47.659C244.08 56.305 192.979 57.309 147.601 64.364C94.8828 72.549 42.8858 91.224 -9.92218 108.353C-43.2902 119.235 -73.3922 127.217 -105.786 136.224C-136.678 144.97 -164.443 158.699 -190.962 185.426C-257.639 253.593 -292.768 408.992 -319.576 532.331" stroke="black" stroke-width="1.0852" stroke-miterlimit="10"/>
<path opacity="0.3478" d="M586.943 -179.088C581.943 -177.938 573.014 -166.403 566.673 -155.191C560.339 -143.875 555.42 -131.833 547.673 -122.172C534.273 -105.466 517.024 -93.8159 498.686 -85.1929C481.103 -76.8739 460.902 -71.3299 444.524 -65.2319C433.639 -61.0689 419.915 -55.7529 415.821 -46.3919C409.478 -31.8649 409.652 -14.8009 401.27 -0.770889C394.88 9.90711 382.729 18.4531 369.693 24.9171C366.491 26.5121 363.117 28.1121 359.623 29.5471C338.822 38.1031 315.677 44.0791 292.172 48.4611C245.821 57.1921 194.825 58.4981 149.199 65.2691C96.3093 73.1091 44.4963 91.2761 -8.03769 109.156C-40.7467 120.325 -71.3397 130.167 -103.499 140.053C-134.363 149.655 -162.182 164.286 -188.674 191.288C-255.539 260.347 -291.444 412.106 -319.304 537.142" stroke="black" stroke-width="1.0852" stroke-miterlimit="10"/>
<path opacity="0.3261" d="M590.585 -177.453C585.918 -175.969 577.524 -164.689 571.504 -153.769C565.484 -142.756 560.747 -131.572 553.408 -121.633C540.946 -104.774 523.959 -93.4031 507.035 -84.7891C490.229 -76.1841 471.004 -70.2811 455.013 -63.6861C444.056 -59.0811 430.756 -53.8381 425.584 -44.8941C417.186 -30.3791 415.244 -13.8161 405.727 0.10788C398.445 10.7349 385.824 19.1679 372.415 25.6259C369.129 27.2159 365.678 28.8059 362.115 30.2419C340.992 38.7669 317.674 44.7859 293.999 49.2389C247.559 58.0559 196.661 59.6769 150.758 66.1749C97.6658 73.6829 45.9978 91.2649 -6.29916 109.8C-38.4412 121.206 -69.4721 132.843 -101.381 143.617C-132.159 154.084 -159.988 169.617 -186.413 196.892C-253.393 266.874 -290.068 415.118 -318.994 541.767" stroke="black" stroke-width="1.0852" stroke-miterlimit="10"/>
<path opacity="0.3043" d="M594.152 -175.85C589.799 -174.04 581.924 -163.032 576.221 -152.416C570.515 -141.711 565.971 -130.886 559.021 -121.189C547.441 -105.028 531.445 -93.2866 515.237 -84.5956C498.834 -75.7636 481.685 -68.7566 465.468 -62.5146C455.028 -58.3846 441.138 -51.3696 435.693 -43.7226C425.386 -29.1146 420.97 -13.0456 410.248 0.890396C402.078 11.4794 388.989 19.8274 375.18 26.2964C371.808 27.8834 368.28 29.4644 364.647 30.9034C343.199 39.4044 319.701 45.4684 295.847 49.9924C249.293 58.8984 198.487 60.8424 152.283 67.0804C98.9667 74.2724 47.4057 91.2004 -4.69135 110.296C-36.3943 121.914 -67.7603 135.232 -99.4343 146.91C-130.072 158.246 -157.851 174.676 -184.186 202.222C-251.24 273.175 -288.63 418.077 -318.652 546.197" stroke="black" stroke-width="1.0852" stroke-miterlimit="10"/>
<path opacity="0.2826" d="M597.649 -174.273C593.593 -172.142 586.223 -161.426 580.831 -151.123C575.436 -140.734 571.085 -130.271 564.519 -120.826C553.616 -105.137 538.595 -93.4454 523.294 -84.5944C507.703 -75.5424 491.401 -68.2304 475.871 -61.6934C465.565 -57.2594 452.195 -50.3054 446.091 -42.8734C433.996 -28.0354 426.84 -12.4294 414.85 1.59155C405.793 12.1536 392.23 20.4416 377.998 26.9376C374.539 28.5226 370.933 30.0976 367.228 31.5396C345.451 40.0236 321.766 46.1316 297.723 50.7296C251.033 59.7266 200.31 61.9996 153.783 67.9946C100.229 74.8906 48.7356 91.1006 -3.20038 110.67C-34.6384 122.506 -66.1524 137.055 -97.6564 149.939C-128.149 162.442 -155.71 179.381 -181.994 207.273C-249.018 279.204 -287.162 420.857 -318.276 550.432" stroke="black" stroke-width="1.0852" stroke-miterlimit="10"/>
<path opacity="0.2609" d="M601.082 -172.723C597.306 -170.277 590.429 -159.87 585.344 -149.888C580.258 -139.817 576.129 -129.192 569.911 -120.54C559.024 -105.423 546.119 -94.3426 531.212 -84.7686C516.866 -75.5696 501.28 -67.9317 486.211 -61.2027C475.921 -56.5247 463.336 -49.5917 456.732 -42.3447C442.917 -27.0927 432.9 -11.9636 419.556 2.22336C409.508 12.8734 395.407 20.8844 380.883 27.5524C377.398 29.1574 373.649 30.7074 369.872 32.1534C347.761 40.6244 323.881 46.7784 299.641 51.4494C252.794 60.5394 202.142 63.1434 155.274 68.9164C101.469 75.5424 50.0056 90.9803 -1.80637 110.937C-33.1544 123.005 -64.6654 138.341 -96.0394 152.706C-126.326 166.617 -153.581 183.746 -179.833 212.036C-246.755 284.965 -285.643 423.517 -317.86 554.464" stroke="black" stroke-width="1.0852" stroke-miterlimit="10"/>
<path opacity="0.2391" d="M604.456 -171.197C600.946 -168.44 594.55 -158.358 589.767 -148.704C584.982 -138.965 581.051 -128.743 575.203 -120.322C565.024 -105.693 552.944 -94.7103 538.992 -85.1043C525.486 -75.8163 510.741 -67.9633 496.472 -61.0203C486.447 -56.0723 474.514 -49.2103 467.562 -42.1293C452.318 -26.4813 438.596 -11.4533 424.376 2.79874C413.822 13.3927 398.846 21.4597 383.836 28.1497C380.252 29.7537 376.431 31.3017 372.578 32.7517C350.126 41.2147 326.045 47.4127 301.597 52.1587C254.573 61.3427 203.977 64.2807 156.755 69.8537C102.697 76.2357 51.1909 90.8637 -0.500122 111.117C-31.8091 123.377 -63.2401 139.924 -94.5711 155.175C-124.318 169.657 -151.883 188.206 -177.71 216.508C-244.401 290.253 -284.078 426.038 -317.412 558.294" stroke="black" stroke-width="1.0852" stroke-miterlimit="10"/>
<path opacity="0.2174" d="M607.775 -169.693C604.517 -166.631 598.592 -156.887 594.108 -147.567C589.614 -138.17 585.829 -128.869 580.403 -120.166C571.425 -105.764 558.918 -94.6024 546.64 -85.5844C533.983 -76.2524 519.895 -68.3254 506.645 -61.1224C495.965 -55.2644 485.07 -48.5754 478.539 -42.2194C462.087 -26.0424 444.35 -10.8614 429.331 3.32964C418.236 13.8926 402.392 22.0126 386.871 28.7346C383.187 30.3386 379.29 31.8856 375.36 33.3406C352.561 41.7976 328.27 48.0406 303.607 52.8616C256.386 62.1406 205.833 65.4086 158.246 70.8106C103.936 76.9756 52.1911 90.8086 0.74411 111.229C-59.3879 134.765 -124.199 162.585 -175.616 220.688C-242.071 295.465 -282.463 428.451 -316.922 561.918" stroke="black" stroke-width="1.0852" stroke-miterlimit="10"/>
<path opacity="0.1957" d="M611.045 -168.209C608.028 -164.845 602.566 -155.451 598.377 -146.471C594.177 -137.416 590.581 -128.469 585.52 -120.064C577.601 -106.848 565.448 -94.706 554.162 -86.194C542.036 -76.971 529.187 -68.808 516.721 -61.485C506.621 -55.51 496.255 -48.838 489.62 -42.601C472.051 -25.823 450.295 -10.256 434.432 3.83C422.717 14.387 406.05 22.552 389.992 29.314C386.205 30.918 382.23 32.464 378.222 33.926C355.065 42.379 330.56 48.664 305.672 53.563C258.236 62.939 207.71 66.531 159.75 71.792C105.194 77.777 53.1805 90.78 1.93646 111.293C-57.8555 134.878 -122.177 165.464 -173.555 224.576C-239.707 300.383 -280.8 430.734 -316.394 565.335" stroke="black" stroke-width="1.0852" stroke-miterlimit="10"/>
<path opacity="0.1739" d="M614.272 -166.742C611.485 -163.08 606.48 -154.047 602.581 -145.412C598.67 -136.704 595.264 -128.111 590.56 -120.009C583.225 -107.315 572.05 -95.4432 561.563 -86.9182C550.313 -77.7082 538.39 -69.5612 526.695 -62.0822C517.183 -55.9692 507.422 -49.3942 500.769 -43.2592C482.351 -25.8692 456.1 -9.56719 439.697 4.31181C427.533 14.8698 409.834 23.0928 393.21 29.8938C389.318 31.4988 385.263 33.0438 381.173 34.5118C357.649 42.9618 332.922 49.2878 307.801 54.2628C260.13 63.7378 209.612 67.6498 161.28 72.7968C106.496 78.6298 54.1768 90.7878 3.0968 111.324C-56.5052 134.936 -120.146 167.997 -171.521 228.171C-237.268 304.928 -279.085 432.937 -315.825 568.538" stroke="black" stroke-width="1.0852" stroke-miterlimit="10"/>
<path opacity="0.1522" d="M617.457 -165.291C614.891 -161.335 610.336 -152.672 606.725 -144.386C603.1 -136.028 599.883 -127.791 595.529 -119.996C588.76 -107.826 578.544 -96.257 568.846 -87.743C558.478 -78.584 547.438 -70.386 536.557 -62.89C527.685 -56.751 518.515 -50.198 511.948 -44.177C491.357 -25.094 465.552 -10.114 445.132 4.78699C430.735 15.387 413.739 23.589 396.525 30.479C392.524 32.084 388.387 33.628 384.214 35.102C360.313 43.548 335.358 49.913 309.995 54.967C262.072 64.542 211.543 68.767 162.842 73.831C107.849 79.549 55.1912 90.847 4.23819 111.341C-55.3538 134.974 -118.134 170.179 -169.516 231.478C-234.827 309.232 -277.331 434.956 -315.216 571.527" stroke="black" stroke-width="1.0852" stroke-miterlimit="10"/>
<path opacity="0.1304" d="M620.609 -163.854C618.256 -159.605 614.15 -151.322 610.823 -143.388C607.482 -135.384 604.477 -127.516 600.44 -120.019C594.044 -108.137 585.286 -97.6825 576.025 -88.6565C566.758 -79.6185 556.749 -71.7015 546.312 -63.8855C538.085 -57.7085 529.543 -51.2415 523.133 -45.3365C500.771 -24.5735 473.96 -8.85151 450.756 5.26549C435.037 14.9105 417.852 24.1095 399.953 31.0745C395.84 32.6795 391.618 34.2235 387.359 35.7025C363.069 44.1445 337.864 50.5475 312.266 55.6765C264.105 65.3475 213.514 69.8815 164.451 74.8955C109.274 80.5355 56.2425 90.9725 5.38251 111.36C-54.3395 134.997 -116.088 172.002 -167.53 234.5C-232.442 313.342 -275.525 436.856 -314.562 574.298" stroke="black" stroke-width="1.0852" stroke-miterlimit="10"/>
<path opacity="0.1087" d="M623.734 -162.428C621.588 -157.888 617.925 -149.992 614.88 -142.412C611.819 -134.765 609.002 -127.253 605.298 -120.071C599.429 -108.688 591.523 -98.5397 583.104 -89.6427C574.68 -80.7357 565.551 -72.8207 555.957 -65.0397C548.396 -58.8947 540.5 -52.5027 534.296 -46.7137C510.662 -24.4537 481.386 -8.01175 456.58 5.76225C440.125 15.0213 422.047 24.6813 403.495 31.6883C399.267 33.2933 394.956 34.8343 390.608 36.3193C365.916 44.7543 340.439 51.1963 314.616 56.3973C266.233 66.1603 215.522 71.0013 166.11 75.9953C110.783 81.5923 57.3398 91.1793 6.54282 111.404C-53.4502 135.016 -114.15 173.6 -165.565 237.249C-229.914 317.011 -273.665 438.574 -313.867 576.851" stroke="black" stroke-width="1.0852" stroke-miterlimit="10"/>
<path opacity="0.087" d="M626.832 -161.012C624.887 -156.183 621.669 -148.679 618.903 -141.456C616.12 -134.166 613.488 -127.013 610.109 -120.147C604.755 -109.267 597.68 -99.4397 590.09 -90.6907C582.495 -81.9327 574.235 -74.0457 565.491 -66.3297C558.602 -60.2397 551.373 -53.9537 545.413 -48.2837C520.834 -24.7067 490.353 -7.69472 463.641 6.04628C445.781 15.3523 426.667 25.1643 407.156 32.3243C402.808 33.9273 398.402 35.4693 393.968 36.9563C368.893 45.3723 343.106 51.8593 317.049 57.1323C268.432 66.9873 217.569 72.1303 167.832 77.1323C112.395 82.7163 58.5031 91.4803 7.73706 111.485C-52.6449 135.041 -112.246 174.93 -163.613 239.732C-227.353 320.373 -271.753 440.146 -313.128 579.184" stroke="black" stroke-width="1.0852" stroke-miterlimit="10"/>
<path opacity="0.0652" d="M629.911 -159.604C628.165 -154.487 625.39 -147.379 622.901 -140.515C620.395 -133.585 617.943 -126.789 614.883 -120.243C610.034 -109.871 603.769 -100.377 596.993 -91.7905C590.213 -83.1975 582.811 -75.3575 574.921 -67.7325C568.706 -61.7185 562.157 -55.5705 556.47 -50.0245C531.185 -25.2165 500.164 -7.64452 471.562 6.20648C451.929 15.8085 431.637 25.6085 410.942 32.9895C406.478 34.5875 401.964 36.1295 397.442 37.6195C371.984 46.0085 345.866 52.5405 319.569 57.8845C270.714 67.8305 219.719 73.2795 169.645 78.3195C114.097 83.9215 59.7422 91.8905 8.98221 111.623C-51.8888 135.084 -110.38 176.027 -161.668 241.961C-224.759 323.431 -269.79 441.57 -312.342 581.294" stroke="black" stroke-width="1.0852" stroke-miterlimit="10"/>
<path opacity="0.0435" d="M632.976 -158.201C631.427 -152.796 629.096 -146.088 626.883 -139.584C624.651 -133.015 622.378 -126.577 619.628 -120.353C615.273 -110.493 609.799 -101.34 603.824 -92.9302C597.845 -84.5142 591.291 -76.7362 584.255 -69.2252C578.713 -63.3042 572.849 -57.3242 567.456 -51.9102C541.572 -25.8392 510.313 -7.59817 479.775 6.37083C458.19 16.2968 436.813 26.0578 414.863 33.6888C410.28 35.2848 405.653 36.8228 401.041 38.3128C375.187 46.6688 348.731 53.2418 322.187 58.6568C273.095 68.6888 222.045 74.4618 171.583 79.5698C115.866 85.2228 61.0682 92.4258 10.2972 111.834C-51.1138 135.14 -108.57 176.941 -159.724 243.947C-222.134 326.19 -267.773 442.844 -311.51 583.179" stroke="black" stroke-width="1.0852" stroke-miterlimit="10"/>
<path opacity="0.0217" d="M636.033 -156.801C634.679 -151.107 632.797 -144.801 630.858 -138.659C628.9 -132.451 626.799 -126.371 624.354 -120.473C620.481 -111.128 615.782 -102.324 610.593 -94.0988C605.402 -85.8688 599.686 -78.1648 593.499 -70.7848C588.627 -64.9708 583.447 -59.1848 578.359 -53.9138C551.978 -26.5338 520.243 -7.61679 488.255 6.53821C464.881 16.9052 442.232 26.5452 418.918 34.4282C414.212 36.0192 409.469 37.5532 404.764 39.0422C378.502 47.3582 351.7 53.9672 324.902 59.4542C275.563 69.5712 224.448 75.6712 173.608 80.8732C117.755 86.6022 62.5011 93.0992 11.6981 112.134C-50.2829 135.215 -106.815 177.708 -157.773 245.708C-219.479 328.659 -265.704 443.974 -310.629 584.839" stroke="black" stroke-width="1.0852" stroke-miterlimit="10"/>
</g>
</g>
</g>
<defs>
<clipPath id="clip0_2235_2027">
<rect width="750" height="500" fill="white"/>
</clipPath>
</defs>
</svg>
