<svg width="750" height="500" viewBox="0 0 750 500" fill="none" xmlns="http://www.w3.org/2000/svg">
<g clip-path="url(#clip0_2235_2027)">
<mask id="mask0_2235_2027" style="mask-type:luminance" maskUnits="userSpaceOnUse" x="0" y="0" width="750" height="500">
<path d="M0 500L750 500L750 0L0 0L0 500Z" fill="white"/>
</mask>
<g mask="url(#mask0_2235_2027)">
<g opacity="0.52">
<path d="M-17.709 561.534C-2.63398 577.944 27.699 591.098 45.279 581.742C58.539 574.668 64.485 558.574 76.643 553.411C97.13 544.731 125.17 557.874 149.104 577.337C171.079 594.927 192.879 616.101 211.977 633.988C225.527 646.15 245.236 661.781 247.595 644.81C252.452 615.89 227.656 553.532 216.055 515.377C206.777 481.896 197.431 442.126 210.157 417.796C219.025 400.909 241.55 401.59 263.408 407.138C311.718 419.171 368.368 439.642 415.202 465.153C477.05 498.581 520.853 550.81 560.868 582.655C595.729 609.046 632.628 626.041 689.192 580.133C728.393 548.001 765.935 494.064 798.049 442.223C830.25 389.8 857.023 339.473 876.705 301.146" stroke="black" stroke-width="1.0852" stroke-miterlimit="10"/>
<path opacity="0.9783" d="M-23.6035 555.477C-8.71852 571.622 21.3965 584.298 39.0555 574.784C52.4535 567.546 58.6455 551.404 70.9715 546.174C91.3015 537.515 119.985 549.877 144.113 569.526C165.953 587.033 187.115 607.534 206.362 624.518C220.326 636.408 239.244 649.929 241.488 633.069C246.089 604.015 222.123 544.075 210.868 506.18C202.936 477.16 196.32 446.168 202.362 422.073C203.35 418.17 204.743 414.801 206.42 411.977C215.935 395.873 238.351 396.83 260.034 402.411C308.26 414.592 364.447 434.548 411.613 458.655C474.089 490.37 519.433 540.642 560.099 572.726C596 599.718 633.28 618.431 689.838 574.706C729.119 543.989 767.158 489.685 799.891 437.102C832.697 383.936 860.196 332.491 880.088 294.041" stroke="black" stroke-width="1.0852" stroke-miterlimit="10"/>
<path opacity="0.9565" d="M-29.501 549.409C-13.205 563.977 13.869 578.1 32.733 567.726C46.256 560.389 52.718 544.165 65.211 538.87C85.874 530.076 114.746 542.174 139.03 561.575C161.056 578.934 181.524 598.336 200.663 614.961C214.537 626.643 233.119 638.088 235.259 621.413C239.626 592.278 216.565 534.693 205.687 497.082C198.181 469.021 192.009 438.969 198.489 415.898C199.548 412.16 201.002 408.942 202.739 406.251C212.674 390.789 235.208 392.134 256.727 397.747C304.953 410.081 359.972 429.84 408.031 452.364C471.476 481.893 518.25 530.796 559.186 562.775C596.2 590.36 633.91 610.685 690.445 569.232C729.71 540.064 768.26 485.386 801.659 432.011C835.113 378.057 863.415 325.407 883.47 286.932" stroke="black" stroke-width="1.0852" stroke-miterlimit="10"/>
<path opacity="0.9348" d="M-35.3936 543.341C-20.9556 558.888 8.64845 570.251 26.3224 560.586C39.9694 553.089 46.7084 536.875 59.3634 531.519C80.3614 522.589 109.468 534.387 133.847 553.503C155.654 570.384 175.748 589.315 194.882 605.326C208.896 616.742 226.871 626.29 228.915 609.837C233.073 580.676 210.97 525.37 200.513 488.089C193.449 460.981 187.74 431.871 194.663 409.826C195.794 406.252 197.209 402.86 199.109 400.622C210.513 387.179 230.008 387.104 253.481 393.148C301.541 405.396 356.105 425.088 404.457 446.284C468.189 474.052 516.511 520.75 558.118 552.826C596.319 580.992 634.503 602.82 690.997 563.719C730.148 536.221 769.215 481.181 803.322 426.975C837.464 372.2 866.646 318.258 886.832 279.828" stroke="black" stroke-width="1.0852" stroke-miterlimit="10"/>
<path opacity="0.913" d="M-41.2686 537.286C-26.9776 552.443 4.26945 563.442 19.8404 553.385C32.1314 545.276 41.2384 529.79 53.4404 524.141C73.5674 514.597 104.124 526.469 128.568 545.325C150.162 561.697 169.917 580.205 189.032 595.618C203.158 606.75 220.515 614.522 222.472 598.336C226.451 569.205 205.278 516.025 195.356 479.206C188.801 453.104 183.55 424.893 190.891 403.862C192.09 400.449 193.586 397.214 195.536 395.096C207.337 382.277 226.84 382.719 250.304 388.62C298.585 400.637 353.072 420.361 400.907 440.422C464.209 466.86 514.225 510.526 556.901 542.909C596.345 571.652 635.09 594.851 691.498 558.184C730.399 532.49 770.002 477.09 804.881 421.993C839.77 366.347 869.936 311.003 890.179 272.742" stroke="black" stroke-width="1.0852" stroke-miterlimit="10"/>
<path opacity="0.8913" d="M-47.1143 531.256C-33.0213 546.118 -2.26026 556.25 13.2997 546.143C25.7117 537.905 35.1097 522.45 47.4507 516.755C67.8967 507.088 98.6437 518.579 123.193 537.061C144.572 552.89 164.056 571.032 183.124 585.85C197.334 596.678 214.075 602.816 215.946 586.913C219.755 557.811 199.608 506.906 190.226 470.443C184.165 445.242 179.391 418.019 187.176 398.013C188.449 394.76 190.022 391.678 192.022 389.677C204.222 377.475 223.916 378.243 247.196 384.163C295.66 396.36 349.168 415.917 397.391 434.777C460.713 459.469 512.136 500.657 555.535 533.046C596.295 562.353 635.692 586.796 691.943 552.634C730.473 528.838 770.624 473.074 806.328 417.036C842.013 360.477 873.251 303.646 893.506 265.678" stroke="black" stroke-width="1.0852" stroke-miterlimit="10"/>
<path opacity="0.8696" d="M-52.9229 525.259C-39.0309 539.814 -8.80285 549.01 6.71215 538.873C19.2562 530.527 28.7982 516.064 41.3992 509.374C61.6592 498.351 95.0131 511.895 117.717 528.721C138.396 543.579 158.491 562.191 177.165 576.021C194.018 588.497 205.928 588.114 209.347 575.555C216.11 551.604 194.035 497.76 185.125 461.795C179.538 437.52 175.29 411.256 183.518 392.272C184.867 389.176 186.516 386.247 188.567 384.361C201.234 372.716 221.085 373.932 244.367 379.946C293.123 392.427 345.379 411.67 393.918 429.344C457.114 452.32 509.893 490.965 554.019 523.257C596.198 553.088 636.198 578.692 692.326 547.073C730.382 525.251 771.115 469.089 807.703 412.054C844.239 354.533 876.63 296.14 896.806 258.639" stroke="black" stroke-width="1.0852" stroke-miterlimit="10"/>
<path opacity="0.8478" d="M-58.6797 519.307C-44.9927 533.541 -15.3387 541.737 0.0973129 531.597C12.7463 523.132 22.5633 508.733 35.3023 502.021C55.8733 490.914 89.3123 503.916 112.148 520.331C132.657 534.633 152.529 552.873 171.173 566.152C187.93 578.101 199.378 576.628 202.696 564.274C209.346 540.24 188.377 488.695 180.068 453.281C174.963 429.92 171.261 404.622 179.927 386.657C181.353 383.716 183.079 380.937 185.182 379.162C198.375 368.028 218.729 369.904 241.81 376.033C290.428 388.819 341.239 407.889 390.506 424.131C453.675 444.947 507.99 481.787 552.364 513.581C596.059 543.912 636.627 570.575 692.65 541.525C730.142 521.718 771.491 465.125 809.017 407.042C846.456 348.517 880.073 288.503 900.078 251.641" stroke="black" stroke-width="1.0852" stroke-miterlimit="10"/>
<path opacity="0.8261" d="M-64.376 513.412C-50.899 527.31 -21.856 534.45 -6.53398 524.333C6.21002 515.755 16.298 501.443 29.163 494.715C50.03 483.533 83.512 495.945 106.482 511.909C126.771 525.588 146.62 543.569 165.152 556.253C181.781 567.657 192.776 565.188 196.001 553.071C202.555 529.023 182.719 479.707 175.054 444.907C170.435 422.445 167.301 398.123 176.397 381.171C177.9 378.382 179.865 376.045 181.859 374.084C193.575 362.448 219.52 366.972 239.379 372.322C287.992 385.037 337.844 404.024 387.157 419.136C449.874 438.377 505.451 472.478 550.568 504.044C595.834 534.827 637.008 562.455 692.905 535.997C729.756 518.222 771.78 461.119 810.311 401.92C848.715 342.331 883.624 280.647 903.315 244.688" stroke="black" stroke-width="1.0852" stroke-miterlimit="10"/>
<path opacity="0.8043" d="M-70 507.587C-57.227 520.608 -28.28 527.571 -13.166 517.103C-0.277 508.027 10.022 494.221 22.995 487.476C44.141 476.227 77.618 488.006 100.725 503.477C120.829 516.537 140.686 534.245 159.12 546.34C175.592 557.176 186.153 553.805 189.283 541.949C195.73 517.962 176.986 470.673 170.096 436.678C166.079 415.474 163.303 391.495 172.938 375.813C174.551 373.198 176.573 370.977 178.608 369.125C190.267 358.366 218.075 363.674 237.076 368.801C285.677 381.444 334.57 400.306 383.89 414.351C446.037 432.101 502.782 463.4 548.645 494.673C595.553 525.861 637.334 554.358 693.096 530.503C729.232 514.755 771.992 457.063 811.591 396.685C851.02 335.976 887.288 272.582 906.517 237.783" stroke="black" stroke-width="1.0852" stroke-miterlimit="10"/>
<path opacity="0.7826" d="M-75.541 501.838C-62.98 514.555 -35.754 520.232 -19.785 509.919C-6.07401 500.923 4.05798 486.028 16.806 480.317C39.212 470.131 69.751 479.532 94.874 495.053C114.66 507.089 134.435 524.525 153.082 536.429C169.559 546.998 179.488 542.496 182.549 530.917C188.934 507.053 171.361 461.862 165.193 428.606C161.662 408.264 159.52 385.277 169.544 370.594C171.234 368.127 173.172 365.862 175.423 364.295C188.697 354.952 214.9 360.147 234.886 365.463C283.46 378.028 331.733 396.489 380.708 409.779C442.115 426.516 499.5 454.308 546.595 485.505C595.148 517.232 639.914 544.176 693.213 525.059C719.778 515.673 756.999 468.781 784.2 431.17C833.179 362.833 874.596 292.804 909.675 230.938" stroke="black" stroke-width="1.0852" stroke-miterlimit="10"/>
<path opacity="0.7609" d="M-80.9902 496.182C-68.6252 508.524 -42.0642 513.01 -26.3772 502.806C-12.6232 493.709 -2.23023 479.014 10.6058 473.267C33.2258 462.989 63.7318 471.784 88.9338 486.667C108.48 498.015 128.665 515.42 147.05 526.543C161.978 535.53 173.572 532.777 175.816 519.987C180.653 493.048 165.763 453.155 160.353 420.707C157.311 401.206 155.827 379.223 166.22 365.522C167.988 363.2 170.061 361.25 172.654 360.06C188.4 352.77 212.289 356.932 232.806 362.298C281.316 374.75 329.496 394.208 377.629 405.446C437.49 419.517 496.836 446.22 544.433 476.572C594.855 508.17 638.843 540.496 693.259 519.679C760.651 492.317 871.706 292.994 912.789 224.156" stroke="black" stroke-width="1.0852" stroke-miterlimit="10"/>
<path opacity="0.7391" d="M-86.333 490.624C-73.372 503.356 -48.173 504.968 -32.925 495.777C-19.316 487.366 -8.51501 472.101 4.40799 466.335C27.214 455.975 57.643 464.13 82.911 478.335C102.238 488.996 122.917 506.374 141.038 516.698C155.736 525.022 166.741 521.567 169.101 509.167C174.173 482.94 160.25 444.038 155.583 412.986C152.96 394.355 152.228 373.337 162.971 360.599C164.817 358.416 167.582 357.451 170.253 356.378C186.541 349.778 210.23 353.948 230.83 359.294C279.152 371.611 325.979 392.218 374.759 402.114C435.045 414.438 494.544 438.772 542.169 467.908C570.051 485.013 595.855 501.057 621.738 510.299C643.107 517.877 666.275 525.669 693.473 513.254C769.132 476.498 871.616 291.036 915.856 217.445" stroke="black" stroke-width="1.0852" stroke-miterlimit="10"/>
<path opacity="0.7174" d="M-91.5625 485.182C-78.8615 497.427 -54.2995 497.924 -39.4175 488.857C-25.6665 480.295 -15.5795 465.263 -1.7805 459.549C22.3335 449.501 51.4615 456.666 76.8025 470.088C96.1205 480.205 116.572 497.249 135.048 506.924C151.77 515.763 159.068 509.314 162.408 498.477C169.243 476.458 154.601 435.489 150.88 405.462C148.853 388.013 147.798 366.306 160.358 356.671C162.461 355.064 165.197 353.869 167.945 352.904C184.742 346.952 208.249 351.12 228.945 356.447C277.01 368.609 323.754 389.415 372.026 398.972C432.252 410.957 490.558 430.736 539.81 459.554C568.361 476.311 594.796 492.826 620.926 502.619C643.056 510.791 665.414 519.073 693.835 506.335C770.797 469.486 872.84 286.674 918.867 210.812" stroke="black" stroke-width="1.0852" stroke-miterlimit="10"/>
<path opacity="0.6957" d="M-96.6641 479.862C-84.9441 492.053 -59.6661 490.419 -45.8361 482.061C-32.1331 473.51 -21.7661 458.665 -7.94506 452.924C16.2659 442.801 45.2539 449.283 70.6189 461.95C90.1349 471.582 110.761 488.079 129.095 497.249C145.209 505.374 152.463 498.486 155.754 487.935C162.553 466.226 149.131 427.227 146.252 398.148C144.757 381.968 144.171 361.144 157.894 353.037C160.266 351.644 162.904 350.49 165.724 349.625C183.002 344.282 206.22 348.543 227.148 353.744C275.308 365.532 321.566 386.708 369.432 396.006C429.42 407.705 486.79 423.314 537.374 451.545C566.567 467.895 593.635 484.829 620.008 495.126C642.814 503.858 664.745 512.152 694.297 499.151C772.406 462.369 874.01 282.342 921.822 204.262" stroke="black" stroke-width="1.0852" stroke-miterlimit="10"/>
<path opacity="0.6739" d="M-101.631 474.678C-90.1609 486.31 -65.5559 483.588 -52.1679 475.408C-38.5009 466.779 -27.8989 452.245 -14.0749 446.481C10.1931 436.296 39.0011 442.072 64.3641 453.947C84.1301 463.088 105.011 479.055 123.185 487.699C138.636 495.095 145.896 487.83 149.151 477.562C155.922 456.224 143.714 419.126 141.703 391.06C140.643 374.624 141.126 357.375 155.52 349.612C157.958 348.309 160.695 347.301 163.585 346.529C181.312 341.753 204.401 345.989 225.433 351.18C273.315 362.829 319.534 384.058 366.973 393.208C426.311 404.691 483.2 416.571 534.881 444.011C587.426 471.278 635.771 518.232 694.838 491.758C774.135 454.968 875.135 278.028 924.719 197.801" stroke="black" stroke-width="1.0852" stroke-miterlimit="10"/>
<path opacity="0.6522" d="M-106.448 469.638C-95.2282 480.678 -71.3032 476.886 -58.3952 468.915C-44.7832 460.22 -33.9632 446.019 -20.1562 440.238C4.12776 430.002 32.7138 435.057 58.0468 446.106C78.0178 454.707 99.0618 469.96 117.233 478.19C132.232 485.02 139.39 477.336 142.608 467.381C149.355 446.478 138.346 411.212 137.233 384.214C136.676 367.981 138.508 353.467 153.224 346.381C155.728 345.187 158.558 344.289 161.515 343.602C179.663 339.353 202.647 343.56 223.79 348.743C271.401 360.25 317.715 381.604 364.644 390.565C422.459 401.675 480.546 410.848 532.358 436.885C586.662 463.56 634.745 510.925 695.438 484.201C775.867 447.42 876.202 273.75 927.554 191.436" stroke="black" stroke-width="1.0852" stroke-miterlimit="10"/>
<path opacity="0.6304" d="M-111.108 464.758C-100.136 475.169 -76.9014 470.338 -64.5054 462.606C-50.9564 453.876 -40.2044 440.743 -26.1794 434.218C-2.9164 423.25 27.7556 428.214 51.6706 438.458C72.0586 446.987 92.5506 460.543 111.096 468.632C126.137 475.254 132.956 467.017 136.132 457.423C142.842 436.998 134.148 404.448 132.843 377.631C132.131 361.77 136.841 349.286 150.996 343.334C153.586 342.25 156.484 341.443 159.506 340.836C178.048 337.074 201.072 341.153 222.214 346.427C269.134 357.953 316.159 379.179 362.44 388.07C418.726 398.974 478.077 406.263 529.812 430.291C585.873 455.748 633.886 503.481 696.08 476.525C777.589 439.758 877.208 269.515 930.324 185.17" stroke="black" stroke-width="1.0852" stroke-miterlimit="10"/>
<path opacity="0.6087" d="M-115.6 460.045C-103.566 468.775 -83.3986 464.748 -70.4816 456.495C-57.0246 447.728 -46.0946 434.929 -32.1286 428.437C-8.87561 417.491 21.3374 421.623 45.2474 431.03C65.6884 438.9 85.8554 451.129 104.873 459.208C118.474 464.991 127.655 458.148 129.729 447.719C134.209 424.854 127.589 395.96 128.532 371.329C129.16 356.828 134.107 345.703 148.825 340.457C151.53 339.501 154.462 338.753 157.546 338.219C176.463 334.911 199.422 338.963 220.693 344.224C267.394 355.603 314.455 376.831 360.354 385.711C415.751 396.504 474.741 402.673 527.287 424.437C586.035 448.045 632.694 495.98 696.744 468.771C779.28 432.01 878.146 265.327 933.023 179.01" stroke="black" stroke-width="1.0852" stroke-miterlimit="10"/>
<path opacity="0.587" d="M-119.91 455.512C-108.338 463.736 -88.6382 458.718 -76.3072 450.601C-62.8982 441.595 -51.8722 429.369 -37.9902 422.915C-14.7862 412.007 14.9158 415.31 38.7858 423.85C59.2678 431.024 79.4128 442.116 98.5598 449.949C112.313 455.586 121.235 448.487 123.406 438.301C128.031 416.26 121.87 387.978 124.302 365.326C125.764 352.215 132.413 342.177 146.703 337.735C149.484 336.874 152.484 336.202 155.63 335.736C174.903 332.848 197.82 336.874 219.225 342.123C265.726 353.361 312.83 374.552 358.383 383.476C413.01 394.241 471.713 399.436 524.85 419.078C585.789 440.8 631.905 488.368 697.419 460.979C780.872 424.27 879.013 261.198 935.649 172.961" stroke="black" stroke-width="1.0852" stroke-miterlimit="10"/>
<path opacity="0.5652" d="M-124.032 451.168C-112.669 458.584 -93.1332 452.757 -81.9692 444.943C-69.3452 435.862 -56.7352 424.169 -43.7522 417.672C-21.8692 406.485 8.52877 409.237 32.2968 416.951C52.8018 423.405 73.0108 433.635 92.1538 440.892C106.057 446.175 114.826 439.471 117.165 429.21C121.943 408.004 117.196 381.631 120.151 359.646C121.79 347.544 131.681 338.629 144.62 335.157C147.475 334.384 150.542 333.783 153.748 333.379C173.359 330.879 196.256 334.879 217.8 340.116C264.121 351.218 311.272 372.339 356.521 381.355C410.492 392.162 468.83 396.57 522.508 414.188C585.229 433.942 631.481 480.741 698.093 453.182C782.495 416.412 879.806 257.076 938.201 167.023" stroke="black" stroke-width="1.0852" stroke-miterlimit="10"/>
<path opacity="0.5435" d="M-127.952 447.03C-116.802 453.614 -98.1141 447.033 -87.4481 439.542C-74.9011 430.466 -62.0411 418.484 -49.3971 412.73C-26.8691 402.311 0.921862 403.757 25.7949 410.365C45.9379 415.625 66.4669 425.451 85.6559 432.079C99.8599 436.99 108.732 431.149 111.009 420.493C115.371 400.027 111.196 375.803 116.537 355.261C119.605 343.596 129.619 335.759 142.566 332.716C145.494 332.023 148.627 331.488 151.892 331.141C171.827 329 194.725 332.974 216.413 338.201C262.584 349.177 309.767 370.188 354.763 379.345C408.182 390.259 466.154 394.034 520.263 409.752C584.357 427.557 631.328 473.147 698.753 445.423C784.032 408.569 880.531 253.059 940.674 161.211" stroke="black" stroke-width="1.0852" stroke-miterlimit="10"/>
<path opacity="0.5217" d="M-131.662 443.102C-120.721 448.805 -102.892 441.569 -92.7311 434.412C-80.2721 425.379 -67.4731 413.836 -54.9121 408.102C-32.5681 397.749 -5.28011 398.467 19.2909 404.119C39.4099 408.663 59.8749 417.56 79.0649 423.545C93.2649 427.973 102.491 423.077 104.936 412.19C109.258 392.926 106.298 369.841 113.003 351.198C117.036 340.072 127.542 333.057 140.53 330.393C143.529 329.773 146.727 329.299 150.05 329.006C170.297 327.195 193.216 331.147 215.053 336.365C261.099 347.222 308.311 368.091 353.099 377.43C406.061 388.509 463.665 391.793 518.114 405.738C583.273 421.666 631.379 465.614 699.387 437.727C785.491 400.748 881.18 249.099 943.063 155.523" stroke="black" stroke-width="1.0852" stroke-miterlimit="10"/>
<path opacity="0.5" d="M-135.149 439.402C-124.417 444.175 -107.46 436.396 -97.7994 429.577C-85.4454 420.609 -72.7384 409.519 -60.2794 403.815C-38.1614 393.55 -11.4184 393.554 12.8026 398.251C32.9116 402.005 55.2416 412.005 72.3866 415.341C87.8856 418.369 94.5866 415.769 98.9436 404.362C104.832 389.138 101.803 364.404 109.512 347.398C114.312 336.829 125.445 330.513 138.506 328.184C141.576 327.631 144.838 327.215 148.219 326.971C168.768 325.465 191.727 329.396 213.717 334.606C259.665 345.352 306.903 366.049 351.528 375.607C404.118 386.901 461.357 389.829 516.067 402.13C583.109 416.545 632.689 456.367 699.99 430.131C783.944 396.18 881.564 245.583 945.369 149.969" stroke="black" stroke-width="1.0852" stroke-miterlimit="10"/>
<path opacity="0.4783" d="M-138.406 435.93C-127.891 439.749 -112.006 431.541 -102.636 425.051C-90.1502 416.178 -77.8462 405.58 -65.4822 399.882C-43.6232 389.694 -17.4162 389.014 6.34875 392.788C26.4938 395.844 48.6528 404.342 65.6318 407.507C80.8498 410.339 88.3768 408.024 93.0318 397.056C99.0638 382.958 97.4088 359.296 106.047 343.829C111.652 333.792 123.32 328.107 136.485 326.071C139.625 325.579 142.951 325.217 146.39 325.018C167.233 323.793 190.25 327.705 212.399 332.909C258.277 343.553 305.537 364.048 350.042 373.858C402.338 385.41 459.212 388.108 514.119 398.894C581.539 411.58 632.966 449.163 700.552 422.653C785.337 388.351 882.072 241.73 947.588 144.545" stroke="black" stroke-width="1.0852" stroke-miterlimit="10"/>
<path opacity="0.4565" d="M-141.53 432.577C-135.338 435.891 -119.099 429.193 -107.225 420.853C-95.0173 412.158 -83.6163 402.501 -70.9843 396.14C-48.8293 384.93 -22.6013 384.914 -0.0522766 387.764C20.0277 390.167 41.7867 397.391 58.8077 400.093C73.9687 402.494 82.2057 400.597 87.1927 390.337C93.4827 377.461 93.1037 354.536 102.589 340.472C109.001 330.948 121.154 325.824 134.459 324.047C137.669 323.612 141.059 323.3 144.556 323.143C165.686 322.179 188.778 326.075 211.093 331.273C256.928 341.824 304.208 362.09 348.637 372.181C400.709 384.029 457.217 386.617 512.272 396.014C579.889 407.106 633.269 442.147 701.071 415.326C786.639 380.614 882.509 237.942 949.721 139.264" stroke="black" stroke-width="1.0852" stroke-miterlimit="10"/>
<path opacity="0.4348" d="M-144.574 429.302C-138.65 432.103 -123.168 425.216 -111.575 416.976C-99.7122 408.437 -88.7382 398.945 -76.4712 392.573C-54.9312 381.335 -29.4282 380.521 -7.46921 382.742C12.7298 384.652 34.5678 390.87 51.9268 393.146C63.1168 394.47 77.8058 394.988 81.3498 384.219C86.4128 368.823 89.2898 350.197 99.1198 337.299C105.998 328.255 118.935 323.637 132.418 322.096C135.699 321.713 139.152 321.447 142.707 321.33C164.122 320.607 187.303 324.49 209.789 329.684C255.612 340.149 302.948 360.207 347.302 370.56C399.171 382.686 455.44 385.359 510.518 393.457C578.086 403.035 633.354 434.909 701.534 408.163C787.761 373.6 883.604 233.024 951.759 134.119" stroke="black" stroke-width="1.0852" stroke-miterlimit="10"/>
<path opacity="0.413" d="M-147.543 426.103C-141.865 428.405 -127.026 421.416 -115.826 413.264C-104.383 404.837 -93.737 395.557 -81.868 389.191C-61.291 378.094 -36.505 376.327 -15.141 377.939C5.50202 379.368 27.252 384.902 45.007 386.723C56.194 387.737 71.099 388.194 75.35 378.573C81.533 364.533 84.96 346.191 95.623 334.292C103.301 325.708 116.661 321.546 130.354 320.212C133.706 319.877 137.223 319.656 140.837 319.575C162.533 319.077 185.82 322.949 208.482 328.141C254.322 338.53 301.668 358.315 346.031 368.992C397.79 381.466 453.687 384.245 508.854 391.206C576.383 399.472 633.59 428.368 701.936 401.194C788.847 366.07 883.853 229.423 953.699 129.123" stroke="black" stroke-width="1.0852" stroke-miterlimit="10"/>
<path opacity="0.3913" d="M-150.44 422.975C-144.99 424.795 -130.782 417.738 -119.975 409.691C-108.958 401.378 -98.3624 391.63 -87.1744 385.984C-66.9534 375.743 -44.5464 372.795 -22.7814 373.445C-2.43242 373.982 19.4806 378.787 37.3236 380.481C48.5906 381.42 63.5106 382.125 68.7176 373.079C76.3506 359.801 80.5766 342.476 92.0866 331.427C100.564 323.286 114.326 319.53 128.264 318.383C131.688 318.094 135.269 317.913 138.943 317.867C160.921 317.579 184.325 321.443 207.17 326.635C253.054 336.958 300.412 356.45 344.822 367.467C396.523 380.308 452.046 383.295 507.28 389.235C574.663 396.321 633.75 422.092 702.277 394.434C789.82 358.687 884.023 225.889 955.545 124.277" stroke="black" stroke-width="1.0852" stroke-miterlimit="10"/>
<path opacity="0.3696" d="M-153.27 419.917C-148.028 421.272 -134.444 414.178 -124.031 406.249C-113.433 398.078 -103.198 388.591 -92.3965 382.941C-72.9615 372.741 -51.4045 369.301 -30.3875 369.248C-10.4585 369.135 10.8975 372.928 28.5915 374.2C40.0675 374.908 54.9415 375.564 61.3835 367.617C71.0685 355.654 76.1235 338.983 88.4915 328.688C97.7675 320.974 111.918 317.577 126.134 316.604C129.631 316.357 133.297 316.174 137.011 316.202C159.222 316.358 182.683 319.944 205.84 325.165C251.793 335.428 299.167 354.613 343.661 365.982C395.347 379.201 450.498 382.492 505.785 387.525C540.743 390.65 571.557 395.157 604.883 399.623C636.724 403.738 667.652 402.041 702.548 387.906C790.669 351.473 884.111 222.433 957.287 119.592" stroke="black" stroke-width="1.0852" stroke-miterlimit="10"/>
<path opacity="0.3478" d="M-156.034 416.922C-150.984 417.832 -138.237 410.741 -127.996 402.928C-117.72 395.017 -108.46 385.882 -97.5362 380.049C-78.6442 369.963 -58.2022 366.04 -37.9512 365.329C-18.5132 364.6 2.23982 367.451 19.6958 368.29C31.3408 368.746 46.0488 369.259 53.4968 362.264C65.0438 351.405 71.5988 335.649 84.8248 326.048C94.9008 318.746 109.435 315.67 123.962 314.857C127.533 314.65 131.264 314.507 135.042 314.563C157.532 314.882 181.161 318.495 204.494 323.715C250.541 333.927 297.938 352.792 342.548 364.52C394.257 378.124 449.038 381.81 504.37 386.043C538.835 388.646 570.833 391.635 604.287 395.2C636.439 398.517 667.772 396.012 702.751 381.612C791.396 344.434 884.118 219.044 958.93 115.057" stroke="black" stroke-width="1.0852" stroke-miterlimit="10"/>
<path opacity="0.3261" d="M-158.738 413.988C-153.864 414.461 -141.708 407.392 -131.877 399.723C-122.009 391.968 -113.254 383.549 -102.596 377.3C-84.5053 366.704 -64.4143 362.935 -45.4663 361.675C-26.6303 360.377 -6.63327 362.515 10.6617 362.744C22.5467 362.821 36.8367 363.235 45.1117 357.047C58.5437 347.007 66.8457 332.545 81.0737 323.488C91.9497 316.583 106.871 313.797 121.74 313.136C125.387 312.967 129.185 312.864 133.026 312.946C155.8 313.42 179.605 317.062 203.122 322.283C249.286 332.45 296.715 350.988 341.472 363.076C393.236 377.064 447.654 381.231 503.025 384.769C537.062 386.93 570.169 388.443 603.744 391.092C636.158 393.58 667.854 390.25 702.88 375.573C791.993 337.592 884.041 215.737 960.468 110.686" stroke="black" stroke-width="1.0852" stroke-miterlimit="10"/>
<path opacity="0.3043" d="M-161.387 411.11C-156.673 411.158 -145.101 404.137 -135.682 396.622C-126.224 389.025 -117.788 380.862 -107.582 374.681C-90.5767 364.38 -71.2517 359.88 -52.9307 358.268C-34.3757 356.603 -15.8537 356.909 1.51228 357.551C12.7353 357.862 28.2653 356.879 36.2803 351.991C51.5033 342.617 61.8863 329.582 77.2263 320.989C88.9033 314.469 104.221 311.945 119.462 311.43C123.186 311.298 127.052 311.232 130.958 311.34C154.021 311.964 178.009 315.635 201.72 320.862C248.023 330.993 295.495 349.197 340.427 361.642C392.272 376.008 446.335 380.734 501.743 383.678C535.46 385.472 569.536 385.57 603.25 387.297C635.877 388.931 667.88 384.757 702.929 369.795C792.492 330.95 883.883 212.449 961.895 106.477" stroke="black" stroke-width="1.0852" stroke-miterlimit="10"/>
<path opacity="0.2826" d="M-163.981 408.284C-159.413 407.921 -148.421 400.971 -139.411 393.62C-130.363 386.192 -122.246 378.285 -112.494 372.185C-96.2974 362.052 -77.8884 357.213 -60.3384 355.096C-42.4434 352.909 -24.5804 352.602 -7.73044 352.704C3.48856 352.682 18.5166 351.55 27.0526 347.119C44.0106 338.237 56.7296 326.707 73.2696 318.535C85.7516 312.388 101.482 310.106 117.122 309.734C120.926 309.638 124.861 309.608 128.834 309.74C152.192 310.509 176.37 314.213 200.283 319.447C246.747 329.548 294.272 347.417 339.405 360.213C391.355 374.945 445.072 380.302 500.518 382.748C534.077 384.237 568.774 383.261 602.806 383.813C635.759 384.317 667.762 379.59 702.9 364.29C792.821 324.534 883.625 209.317 963.214 102.438" stroke="black" stroke-width="1.0852" stroke-miterlimit="10"/>
<path opacity="0.2609" d="M-166.528 405.508C-162.094 404.745 -151.677 397.884 -143.074 390.707C-134.436 383.449 -126.459 375.307 -117.338 369.799C-101.381 360.185 -85.1573 355.077 -67.6863 352.141C-50.8773 349.329 -33.5433 348.44 -17.0423 348.183C-5.74133 347.931 8.55568 346.51 17.4787 342.445C36.1797 333.86 51.3417 323.892 69.1927 316.1C82.6207 310.263 98.7367 308.446 114.713 308.031C118.549 307.926 122.605 307.977 126.646 308.134C150.306 309.046 174.681 312.785 198.805 318.029C245.45 328.106 293.041 345.642 338.399 358.776C390.471 373.855 443.857 379.913 499.342 381.953C532.91 383.193 567.913 381.493 602.408 380.632C635.726 379.76 667.522 374.738 702.788 359.059C793.008 318.346 883.276 206.271 964.42 98.5645" stroke="black" stroke-width="1.0852" stroke-miterlimit="10"/>
<path opacity="0.2391" d="M-169.029 402.78C-164.717 401.627 -154.87 394.875 -146.674 387.881C-138.443 380.81 -130.807 372.96 -122.118 367.519C-107.004 358.075 -91.5773 352.731 -74.9713 349.39C-58.9003 346.165 -42.2543 344.748 -26.4053 343.98C-15.2423 343.376 -1.57129 341.763 7.60571 337.988C27.7767 329.6 46.3057 321.184 64.9867 313.677C78.8577 308.09 95.8007 306.567 112.232 306.322C116.158 306.257 120.28 306.338 124.393 306.52C148.363 307.574 172.941 311.351 197.284 316.608C244.129 326.668 291.799 343.875 337.405 357.332C389.614 372.735 442.72 379.554 498.21 381.274C531.817 382.323 567.224 379.477 602.029 377.785C635.075 376.176 667.715 369.97 702.595 354.114C792.923 312.559 882.829 203.34 965.514 94.8691" stroke="black" stroke-width="1.0852" stroke-miterlimit="10"/>
<path opacity="0.2174" d="M-171.489 400.09C-167.289 398.557 -158.008 391.93 -150.219 385.126C-142.39 378.255 -135.251 371.194 -126.838 365.328C-112.918 355.621 -97.0273 350.28 -82.1923 346.821C-66.8843 343.222 -50.8133 341.478 -35.7983 340.07C-23.6743 338.887 -11.0263 337.024 -2.52126 333.751C18.9687 325.352 41.2487 318.375 60.6407 311.238C74.9967 305.893 92.7578 304.662 109.672 304.59C113.69 304.565 117.881 304.677 122.066 304.884C146.354 306.08 171.141 309.899 195.712 315.171C242.775 325.221 290.536 342.108 336.41 355.866C388.765 371.568 441.779 379.211 497.11 380.682C561.653 382.706 632.182 382.632 702.314 349.447C792.833 306.851 882.295 200.486 966.49 91.3438" stroke="black" stroke-width="1.0852" stroke-miterlimit="10"/>
<path opacity="0.1957" d="M-173.911 397.438C-169.814 395.533 -161.096 389.046 -153.711 382.439C-146.287 375.767 -139.46 368.957 -131.5 363.221C-119.02 354.187 -103.07 347.807 -89.3451 344.422C-74.5681 340.714 -59.5441 338.266 -45.2021 336.438C-33.5651 334.919 -21.4111 332.864 -12.8571 329.741C9.89687 321.229 36.0219 315.479 56.1489 308.77C71.0729 303.675 89.6079 302.726 107.032 302.828C111.144 302.843 115.407 302.987 119.667 303.22C144.282 304.561 169.283 308.425 194.091 313.714C241.39 323.759 289.253 340.338 335.415 354.373C387.925 370.338 440.86 378.849 496.041 380.155C560.29 381.999 631.457 379.189 701.95 345.062C792.595 301.399 881.663 197.733 967.349 87.9961" stroke="black" stroke-width="1.0852" stroke-miterlimit="10"/>
<path opacity="0.1739" d="M-176.301 394.82C-172.298 392.55 -164.142 386.216 -157.16 379.811C-150.138 373.344 -143.626 366.785 -136.113 361.187C-124.374 352.403 -109.429 345.886 -96.4338 342.175C-82.4668 338.134 -68.3008 335.336 -54.6058 333.062C-43.4558 331.184 -31.8948 328.981 -23.3648 325.958C0.410223 317.218 30.9582 312.56 51.4992 306.255C66.8362 301.335 86.3422 300.74 104.302 301.029C108.512 301.085 112.848 301.261 117.185 301.52C142.136 303.008 167.358 306.922 192.41 312.232C239.963 322.279 287.946 338.56 334.404 352.846C387.064 369.04 439.947 378.449 494.987 379.669C559.072 381.414 630.588 376.061 701.496 340.956C792.142 296.26 880.955 195.032 968.087 84.8262" stroke="black" stroke-width="1.0852" stroke-miterlimit="10"/>
<path opacity="0.1522" d="M-178.658 392.234C-174.742 389.606 -167.146 383.435 -160.566 377.238C-153.945 370.981 -147.746 364.674 -140.677 359.221C-129.666 350.696 -115.721 344.08 -103.456 340.069C-90.3202 335.729 -76.9452 332.535 -63.9922 329.926C-53.4202 327.773 -42.4122 325.357 -34.0052 322.406C-7.5662 312.965 22.0508 309.346 46.6868 303.682C64.0928 299.602 82.9448 298.749 101.482 299.188C105.792 299.287 110.203 299.495 114.619 299.782C139.916 301.422 165.362 305.39 190.667 310.724C238.491 320.778 286.607 336.776 333.373 351.283C386.18 367.664 439.036 377.998 493.942 379.206C558.026 380.927 629.594 373.265 700.951 337.129C791.588 291.346 880.133 192.488 968.701 81.8398" stroke="black" stroke-width="1.0852" stroke-miterlimit="10"/>
<path opacity="0.1304" d="M-180.991 389.671C-177.156 386.691 -170.121 380.692 -163.941 374.706C-157.72 368.662 -151.862 362.611 -145.2 357.308C-134.644 348.902 -122.48 342.736 -110.414 338.082C-98.3382 333.419 -86.0212 330.08 -73.3512 327.001C-63.3572 324.559 -52.9592 321.975 -44.7432 319.069C-16.0152 308.78 14.8178 304.875 41.7048 301.027C59.9508 298.345 79.3698 296.65 98.5658 297.29C102.979 297.433 107.468 297.675 111.965 297.991C137.618 299.788 163.308 303.819 188.859 309.175C236.941 319.235 285.235 334.973 332.314 349.669C385.259 366.195 438.119 377.467 492.899 378.735C557.104 380.504 628.432 370.781 700.317 333.566C791.015 286.625 879.223 190.027 969.192 79.0332" stroke="black" stroke-width="1.0852" stroke-miterlimit="10"/>
<path opacity="0.1087" d="M-183.302 387.132C-179.543 383.803 -173.068 377.984 -167.287 372.214C-161.464 366.388 -155.919 360.591 -149.687 355.445C-139.812 347.29 -128.551 341.071 -117.31 336.204C-106.061 331.33 -94.5538 327.646 -82.6718 324.267C-73.3028 321.593 -63.5288 318.823 -55.5468 315.942C-25.0608 304.777 8.32323 301.181 36.5482 298.279C55.3192 296.241 75.7392 294.474 95.5522 295.332C100.071 295.521 104.64 295.799 109.221 296.145C135.24 298.106 161.196 302.209 186.984 307.588C235.305 317.651 283.831 333.154 331.222 348.005C384.288 364.631 437.192 376.845 491.85 378.239C556.294 380.138 627.28 368.551 699.592 330.266C790.135 282.258 878.19 187.716 969.558 76.4121" stroke="black" stroke-width="1.0852" stroke-miterlimit="10"/>
<path opacity="0.087" d="M-185.594 384.611C-181.906 380.937 -175.994 375.304 -170.61 369.752C-165.183 364.145 -159.949 358.604 -154.141 353.622C-144.938 345.726 -134.567 339.477 -124.146 334.42C-113.718 329.357 -103.02 325.356 -91.9457 321.703C-83.2167 318.815 -74.0967 315.881 -66.3867 313.013C-34.5138 301.009 0.202251 297.363 30.1673 295.241C50.2483 293.713 71.6812 292.213 92.4352 293.308C97.0622 293.545 101.72 293.861 106.382 294.239C132.745 296.369 159.005 300.552 185.035 305.957C233.608 316.027 282.392 331.312 330.085 346.284C383.246 362.964 436.24 376.113 490.782 377.696C555.562 379.8 626.051 366.58 698.772 327.217C789.1 278.162 877.048 185.521 969.793 73.9785" stroke="black" stroke-width="1.0852" stroke-miterlimit="10"/>
<path opacity="0.0652" d="M-187.87 382.104C-184.252 378.087 -178.903 372.644 -173.914 367.313C-168.884 361.928 -163.956 356.645 -158.566 351.832C-150.028 344.205 -140.532 337.941 -130.924 332.714C-121.31 327.482 -111.42 323.187 -101.167 319.282C-93.0871 316.198 -84.6471 313.124 -77.2371 310.262C-44.2301 297.404 -8.79712 293.456 22.9469 291.976C44.7749 290.874 67.2859 289.849 89.2149 291.206C93.9479 291.494 98.7039 291.851 103.448 292.261C130.153 294.567 156.734 298.838 183.013 304.272C231.84 314.352 280.866 329.408 328.883 344.478C382.156 361.186 435.263 375.247 489.691 377.079C554.883 379.462 624.765 364.837 697.861 324.403C787.92 274.33 875.803 183.44 969.901 71.7305" stroke="black" stroke-width="1.0852" stroke-miterlimit="10"/>
<path opacity="0.0435" d="M-190.136 379.608C-186.585 375.249 -181.803 369.998 -177.209 364.89C-172.573 359.729 -167.949 354.704 -162.973 350.065C-155.09 342.714 -146.456 336.453 -137.653 331.072C-128.845 325.688 -119.758 321.115 -110.335 316.979C-102.91 313.716 -95.1658 310.526 -88.0778 307.671C-54.0238 293.888 -18.1087 289.418 15.4622 288.592C39.2122 287.96 62.7053 287.398 85.8873 289.019C90.7293 289.356 95.5873 289.761 100.413 290.206C127.469 292.697 154.377 297.065 180.911 302.53C229.99 312.624 279.193 327.405 327.595 342.564C381.042 359.291 434.253 374.23 488.565 376.366C554.193 379.104 623.462 363.283 696.855 321.809C786.592 270.757 874.45 181.471 969.877 69.666" stroke="black" stroke-width="1.0852" stroke-miterlimit="10"/>
<path opacity="0.0217" d="M-192.395 377.119C-188.91 372.417 -184.698 367.36 -180.498 362.477C-176.255 357.541 -171.931 352.777 -167.363 348.317C-160.125 341.25 -152.341 335.005 -144.335 329.485C-136.325 323.962 -128.038 319.128 -119.446 314.777C-112.679 311.349 -105.64 308.068 -98.8885 305.224C-63.8625 290.433 -27.2435 285.529 7.73346 285.102C33.3005 284.769 57.9165 284.818 82.4515 286.745C87.4035 287.134 92.3675 287.59 97.2795 288.073C124.695 290.761 151.935 295.232 178.73 300.732C228.07 310.845 277.462 325.35 326.248 340.572C379.85 357.283 433.203 373.051 487.397 375.541C553.46 378.71 622.152 361.889 695.756 319.425C785.124 267.446 872.995 179.621 969.723 67.7969" stroke="black" stroke-width="1.0852" stroke-miterlimit="10"/>
</g>
</g>
</g>
<defs>
<clipPath id="clip0_2235_2027">
<rect width="750" height="500" fill="white"/>
</clipPath>
</defs>
</svg>
