<svg width="174" height="143" viewBox="0 0 174 143" fill="none" xmlns="http://www.w3.org/2000/svg">
<path fill-rule="evenodd" clip-rule="evenodd" d="M47.4832 6.2993L51.7998 9.24222C38.7766 29.6884 38.1577 56.7379 52.4096 78.231C71.6972 107.326 110.981 115.286 140.078 95.9909C146.536 91.7119 151.957 86.4389 156.266 80.5153L160.58 83.4568C155.898 89.926 149.999 95.678 142.963 100.341C111.467 121.223 68.9419 112.606 48.0583 81.1177C32.6018 57.8061 33.3046 28.4543 47.4832 6.2993Z" fill="#FF6600"/>
<path fill-rule="evenodd" clip-rule="evenodd" d="M105.636 52.0461C104.129 51.7368 102.617 51.435 101.11 51.1257L77.5753 86.0764C80.2765 91.9579 86.3388 96.9878 93.8671 98.5092C101.391 100.039 108.931 97.7648 113.714 93.3978L105.636 52.0461ZM55.4546 54.1747C53.2095 60.2427 53.9386 68.0872 58.1869 74.483C62.4289 80.8854 69.369 84.6117 75.8301 84.9086L99.3691 49.9499C98.5161 48.6707 97.667 47.3835 96.8132 46.1038L55.4546 54.1747ZM110.863 49.5446L107.7 51.6409L115.772 92.9998C121.839 95.2439 129.684 94.5153 136.083 90.2733C142.098 86.2847 145.749 79.9127 146.413 73.7947L110.863 49.5446ZM61.9562 16.1767C56.2582 18.9717 51.4301 24.9155 49.9461 32.2679C48.4166 39.7922 50.6961 47.3398 55.0564 52.1165L96.4105 44.0429L97.1868 40.214L61.9562 16.1767ZM99.0686 41.4999L108.991 48.2648L106.317 50.037L101.265 49.0158L98.4163 44.7206L99.0686 41.4999Z" fill="#FF6600"/>
<path fill-rule="evenodd" clip-rule="evenodd" d="M51.8 9.24233L55.0497 11.4678C38.4236 40.545 46.0644 77.0252 72.9732 94.0536C98.7793 110.384 133.167 103.035 152.839 78.1778L156.266 80.5154C151.957 86.439 146.536 91.712 140.079 95.991C110.981 115.286 71.6974 107.326 52.4098 78.2311C38.1579 56.738 38.7768 29.6885 51.8 9.24233Z" fill="#FECDA6"/>
</svg>
