<svg width="84" height="30" viewBox="0 0 84 30" fill="none" xmlns="http://www.w3.org/2000/svg">
<g id="Group 662">
<g id="text">
<g id="Range">
<path d="M12.3652 26.1312V13.6191H17.5338C18.4706 13.6191 19.2791 13.7882 19.9592 14.1262C20.6435 14.4602 21.1709 14.9408 21.5416 15.568C21.9122 16.1912 22.0975 16.9304 22.0975 17.7858C22.0975 18.6533 21.9081 19.3905 21.5294 19.9974C21.1506 20.6002 20.6129 21.0604 19.9165 21.3781C19.22 21.6917 18.3952 21.8485 17.4422 21.8485H14.1736V19.4659H16.8801C17.3363 19.4659 17.7171 19.4068 18.0226 19.2887C18.3321 19.1665 18.5663 18.9832 18.7251 18.7388C18.884 18.4904 18.9634 18.1727 18.9634 17.7858C18.9634 17.3988 18.884 17.0791 18.7251 16.8266C18.5663 16.57 18.3321 16.3786 18.0226 16.2523C17.713 16.122 17.3322 16.0568 16.8801 16.0568H15.3894V26.1312H12.3652ZM19.4094 20.4128L22.5252 26.1312H19.2261L16.1714 20.4128H19.4094Z" fill="#FF6600"/>
<path d="M26.4016 26.2901C25.8029 26.2901 25.2714 26.1903 24.8071 25.9907C24.3468 25.7871 23.9823 25.4816 23.7135 25.0743C23.4487 24.6629 23.3164 24.1477 23.3164 23.5286C23.3164 23.0073 23.408 22.5674 23.5913 22.209C23.7746 21.8506 24.0271 21.5593 24.3489 21.3353C24.6706 21.1113 25.0413 20.9423 25.4608 20.8283C25.8803 20.7101 26.3283 20.6307 26.8048 20.59C27.3384 20.5411 27.7681 20.4902 28.0939 20.4372C28.4198 20.3802 28.656 20.3008 28.8026 20.199C28.9533 20.0931 29.0287 19.9444 29.0287 19.753V19.7224C29.0287 19.4088 28.9207 19.1665 28.7049 18.9954C28.489 18.8244 28.1978 18.7388 27.8312 18.7388C27.4361 18.7388 27.1185 18.8244 26.8782 18.9954C26.6378 19.1665 26.4851 19.4027 26.4199 19.7041L23.6646 19.6064C23.7461 19.0362 23.9558 18.527 24.2939 18.079C24.636 17.6269 25.1044 17.2726 25.699 17.016C26.2978 16.7553 27.0166 16.625 27.8557 16.625C28.4544 16.625 29.0063 16.6962 29.5113 16.8388C30.0164 16.9773 30.4562 17.1809 30.8309 17.4497C31.2057 17.7145 31.4948 18.0403 31.6985 18.4273C31.9062 18.8142 32.0101 19.2561 32.0101 19.753V26.1312H29.1997V24.8238H29.1264C28.9594 25.1415 28.7456 25.4103 28.4849 25.6303C28.2283 25.8502 27.9249 26.0151 27.5746 26.1251C27.2284 26.2351 26.8374 26.2901 26.4016 26.2901ZM27.3241 24.3351C27.6459 24.3351 27.9351 24.2699 28.1917 24.1396C28.4523 24.0092 28.6601 23.83 28.8148 23.6019C28.9696 23.3698 29.047 23.101 29.047 22.7955V21.9035C28.9615 21.9483 28.8576 21.989 28.7354 22.0257C28.6173 22.0624 28.487 22.097 28.3444 22.1296C28.2019 22.1621 28.0552 22.1907 27.9045 22.2151C27.7538 22.2395 27.6092 22.2619 27.4708 22.2823C27.1897 22.3271 26.9494 22.3963 26.7499 22.49C26.5544 22.5837 26.4037 22.7059 26.2978 22.8566C26.1959 23.0032 26.145 23.1783 26.145 23.382C26.145 23.6915 26.255 23.9278 26.4749 24.0907C26.6989 24.2536 26.982 24.3351 27.3241 24.3351Z" fill="#FF6600"/>
<path d="M36.8243 20.7794V26.1312H33.8368V16.7472H36.6777V18.47H36.7815C36.9892 17.8957 37.3436 17.4457 37.8446 17.1198C38.3455 16.7899 38.9422 16.625 39.6346 16.625C40.2944 16.625 40.8667 16.7736 41.3514 17.071C41.8401 17.3642 42.2189 17.7756 42.4877 18.3051C42.7606 18.8305 42.895 19.4455 42.8909 20.1501V26.1312H39.9034V20.7366C39.9075 20.2153 39.7751 19.808 39.5063 19.5147C39.2416 19.2215 38.873 19.0748 38.4005 19.0748C38.0869 19.0748 37.8099 19.1441 37.5696 19.2826C37.3334 19.417 37.1501 19.6104 37.0198 19.863C36.8935 20.1155 36.8284 20.421 36.8243 20.7794Z" fill="#FF6600"/>
<path d="M49.1149 29.8457C48.2229 29.8457 47.4592 29.7215 46.8239 29.4731C46.1885 29.2246 45.6896 28.8845 45.3271 28.4528C44.9646 28.0211 44.7467 27.5323 44.6734 26.9865L47.502 26.8277C47.555 27.0191 47.6527 27.1861 47.7953 27.3287C47.9419 27.4712 48.1313 27.5812 48.3634 27.6586C48.5997 27.736 48.8766 27.7747 49.1943 27.7747C49.6953 27.7747 50.1087 27.6525 50.4345 27.4081C50.7644 27.1678 50.9294 26.7462 50.9294 26.1434V24.4939H50.8255C50.7074 24.7831 50.5282 25.0417 50.2879 25.2698C50.0476 25.4979 49.7482 25.6771 49.3898 25.8074C49.0355 25.9378 48.6282 26.0029 48.1679 26.0029C47.4837 26.0029 46.8565 25.8441 46.2862 25.5264C45.7201 25.2046 45.266 24.7077 44.9238 24.0357C44.5858 23.3596 44.4168 22.49 44.4168 21.427C44.4168 20.3314 44.5919 19.4292 44.9422 18.7205C45.2924 18.0077 45.7506 17.4803 46.3168 17.1382C46.887 16.796 47.5 16.625 48.1557 16.625C48.6485 16.625 49.0701 16.7105 49.4204 16.8816C49.7747 17.0486 50.0659 17.2644 50.294 17.5292C50.5221 17.7939 50.6952 18.0688 50.8133 18.3539H50.8988V16.7472H53.8741V26.1679C53.8741 26.9621 53.6746 27.6321 53.2754 28.1779C52.8763 28.7237 52.3183 29.1371 51.6014 29.4181C50.8846 29.7032 50.0557 29.8457 49.1149 29.8457ZM49.2065 23.828C49.569 23.828 49.8786 23.7323 50.1352 23.5408C50.3918 23.3494 50.5893 23.0745 50.7278 22.7161C50.8663 22.3576 50.9355 21.9279 50.9355 21.427C50.9355 20.9179 50.8663 20.48 50.7278 20.1135C50.5934 19.7428 50.3958 19.4577 50.1352 19.2581C49.8786 19.0586 49.569 18.9588 49.2065 18.9588C48.8359 18.9588 48.5223 19.0606 48.2657 19.2642C48.0091 19.4679 47.8136 19.755 47.6792 20.1257C47.5488 20.4922 47.4837 20.926 47.4837 21.427C47.4837 21.9279 47.5509 22.3576 47.6853 22.7161C47.8197 23.0745 48.0132 23.3494 48.2657 23.5408C48.5223 23.7323 48.8359 23.828 49.2065 23.828Z" fill="#FF6600"/>
<path d="M60.1653 26.3084C59.1837 26.3084 58.3366 26.1149 57.6238 25.728C56.9151 25.337 56.3693 24.781 55.9865 24.0601C55.6077 23.3351 55.4183 22.4737 55.4183 21.4758C55.4183 20.5065 55.6097 19.6593 55.9926 18.9343C56.3754 18.2053 56.9151 17.6391 57.6116 17.2359C58.308 16.8286 59.1287 16.625 60.0737 16.625C60.7416 16.625 61.3526 16.7288 61.9065 16.9366C62.4604 17.1443 62.939 17.4518 63.3422 17.8591C63.7454 18.2664 64.059 18.7694 64.2831 19.3681C64.5071 19.9628 64.6191 20.645 64.6191 21.4148V22.1601H56.463V20.425H61.8393C61.8352 20.1073 61.7599 19.8243 61.6132 19.5758C61.4666 19.3274 61.265 19.1339 61.0084 18.9954C60.7559 18.8529 60.4647 18.7816 60.1348 18.7816C59.8008 18.7816 59.5014 18.8569 59.2367 19.0076C58.9719 19.1543 58.7622 19.3559 58.6074 19.6125C58.4526 19.865 58.3712 20.1521 58.363 20.4739V22.2395C58.363 22.6224 58.4384 22.9584 58.5891 23.2476C58.7398 23.5327 58.9536 23.7547 59.2306 23.9135C59.5075 24.0724 59.8374 24.1518 60.2203 24.1518C60.485 24.1518 60.7253 24.1151 60.9412 24.0418C61.1571 23.9685 61.3424 23.8606 61.4972 23.718C61.6519 23.5755 61.768 23.4003 61.8454 23.1926L64.5885 23.272C64.4745 23.887 64.224 24.4226 63.8371 24.8788C63.4542 25.3309 62.9512 25.6832 62.328 25.9357C61.7049 26.1842 60.984 26.3084 60.1653 26.3084Z" fill="#FF6600"/>
</g>
<path id="e" d="M6.88758 24.1264C6.16107 24.4684 5.46663 24.6204 4.80425 24.5823C4.14348 24.5399 3.54581 24.3186 3.01125 23.9184C2.47828 23.5138 2.03794 22.9422 1.69024 22.2036C1.35248 21.4862 1.19897 20.7924 1.22973 20.1224C1.25906 19.4494 1.46123 18.8424 1.83622 18.3012C2.20979 17.7571 2.74627 17.3204 3.44565 16.9912C3.94004 16.7584 4.42841 16.6224 4.91077 16.5831C5.39313 16.5439 5.85449 16.6047 6.29485 16.7657C6.73521 16.9266 7.1426 17.1897 7.51702 17.5547C7.89002 17.9168 8.21063 18.3827 8.47886 18.9525L8.73857 19.5041L2.7019 22.3461L2.09733 21.0618L6.07656 19.1885C5.96284 18.9548 5.80844 18.7716 5.61335 18.6388C5.41825 18.506 5.20162 18.433 4.96345 18.4199C4.72688 18.4024 4.4865 18.4511 4.24232 18.5661C3.99513 18.6825 3.79981 18.8425 3.65637 19.0463C3.51152 19.2471 3.42652 19.4694 3.40137 19.7132C3.37481 19.9541 3.41457 20.195 3.52065 20.436L4.13587 21.7428C4.26927 22.0262 4.44212 22.2486 4.65443 22.4101C4.86531 22.5686 5.10092 22.6584 5.36126 22.6795C5.62159 22.7006 5.89345 22.6444 6.17682 22.511C6.37276 22.4187 6.53785 22.3079 6.67208 22.1784C6.8063 22.0489 6.90586 21.9045 6.97074 21.745C7.03562 21.5856 7.06051 21.4155 7.04541 21.2348L9.10339 20.3378C9.23328 20.8327 9.23451 21.3164 9.10707 21.7889C8.98123 22.2569 8.73169 22.6929 8.35845 23.0969C7.9838 23.498 7.4935 23.8411 6.88758 24.1264Z" fill="#FF6600"/>
</g>
<g id="orange">
<path id="Vector" fill-rule="evenodd" clip-rule="evenodd" d="M73.995 26.0038L73.2744 25.406C75.9423 21.9774 76.5083 17.1618 74.3275 13.087C71.3762 7.57122 64.5014 5.48948 58.985 8.44192C57.7608 9.09661 56.7049 9.94611 55.8362 10.9304L55.116 10.3329C56.0604 9.25756 57.2097 8.33067 58.5436 7.61726C64.5147 4.42201 71.9568 6.67552 75.1524 12.6453C77.5175 17.0648 76.8978 22.2898 73.995 26.0038Z" fill="#FF6600"/>
<path id="Vector_2" fill-rule="evenodd" clip-rule="evenodd" d="M64.3901 16.8612C64.6537 16.9418 64.9183 17.0211 65.182 17.1016L69.9696 11.2622C69.5868 10.1674 68.5899 9.16786 67.2723 8.76963C65.9556 8.37003 64.5721 8.64874 63.6452 9.34732L64.3901 16.8612ZM73.3791 17.3266C73.8818 16.2817 73.8839 14.8699 73.2336 13.6572C72.5846 12.4435 71.4091 11.6617 70.2613 11.5L65.4728 17.3407C65.6035 17.5833 65.7333 17.8273 65.8641 18.07L73.3791 17.3266ZM63.4153 17.2195L64.015 16.8987L63.2713 9.38368C62.2267 8.88113 60.8147 8.87899 59.6015 9.52805C58.4612 10.1384 57.7025 11.2138 57.481 12.2942L63.4153 17.2195ZM71.5791 23.9965C72.6428 23.5938 73.6043 22.6146 73.9929 21.3279C74.3925 20.0111 74.113 18.6262 73.4154 17.7005L65.9012 18.4445L65.6982 19.1145L71.5791 23.9965ZM65.3842 18.8534L63.7278 17.4793L64.2347 17.2082L65.1189 17.4755L65.5548 18.2898L65.3842 18.8534Z" fill="#FF6600"/>
<path id="Vector_3" fill-rule="evenodd" clip-rule="evenodd" d="M73.2763 25.4082L72.734 24.9564C76.1901 20.0485 75.4412 13.4112 70.927 9.91987C66.5978 6.57162 60.3387 7.30362 56.4102 11.4073L55.8382 10.9325C56.7068 9.94824 57.7628 9.09874 58.987 8.44405C64.5033 5.49161 71.3782 7.57334 74.3294 13.0892C76.5102 17.1639 75.9442 21.9796 73.2763 25.4082Z" fill="#FECDA6"/>
</g>
</g>
</svg>
